<?xml version="1.0" standalone="no"?>
<!DOCTYPE svg PUBLIC "-//W3C//DTD SVG 1.1//EN" "http://www.w3.org/Graphics/SVG/1.1/DTD/svg11.dtd" >
<!--
2013-9-30: Created.
-->
<svg>
<metadata>
Created by iconfont
</metadata>
<defs>

<font id="iconfont" horiz-adv-x="1024" >
  <font-face
    font-family="iconfont"
    font-weight="500"
    font-stretch="normal"
    units-per-em="1024"
    ascent="896"
    descent="-128"
  />
    <missing-glyph />
    
    <glyph glyph-name="x" unicode="x" horiz-adv-x="1001"
d="M281 543q-27 -1 -53 -1h-83q-18 0 -36.5 -6t-32.5 -18.5t-23 -32t-9 -45.5v-76h912v41q0 16 -0.5 30t-0.5 18q0 13 -5 29t-17 29.5t-31.5 22.5t-49.5 9h-133v-97h-438v97zM955 310v-52q0 -23 0.5 -52t0.5 -58t-10.5 -47.5t-26 -30t-33 -16t-31.5 -4.5q-14 -1 -29.5 -0.5
t-29.5 0.5h-32l-45 128h-439l-44 -128h-29h-34q-20 0 -45 1q-25 0 -41 9.5t-25.5 23t-13.5 29.5t-4 30v167h911zM163 247q-12 0 -21 -8.5t-9 -21.5t9 -21.5t21 -8.5q13 0 22 8.5t9 21.5t-9 21.5t-22 8.5zM316 123q-8 -26 -14 -48q-5 -19 -10.5 -37t-7.5 -25t-3 -15t1 -14.5
t9.5 -10.5t21.5 -4h37h67h81h80h64h36q23 0 34 12t2 38q-5 13 -9.5 30.5t-9.5 34.5q-5 19 -11 39h-368zM336 498v228q0 11 2.5 23t10 21.5t20.5 15.5t34 6h188q31 0 51.5 -14.5t20.5 -52.5v-227h-327z" />
    

    
    <glyph glyph-name="weixin11" unicode="&#59109;" d="M661.552 569.338c9.697 0 19.272-0.713 28.798-1.777-25.873 120.508-154.702 210.030-301.763 210.030-164.397 0-299.080-112.058-299.080-254.348 0-82.135 44.804-149.583 119.69-201.894l-29.911-89.97 104.528 52.432c37.432-7.411 67.438-15.014 104.773-15.014 9.381 0 18.69 0.458 27.927 1.183-5.852 19.996-9.236 40.937-9.236 62.659 0.002 130.663 112.198 236.697 254.277 236.697zM500.731 650.422c22.513 0 37.432-14.811 37.432-37.318 0-22.416-14.918-37.429-37.432-37.429-22.416 0-44.902 15.014-44.902 37.429 0.001 22.51 22.487 37.318 44.902 37.318zM291.432 575.674c-22.417 0-45.048 15.014-45.048 37.429 0 22.51 22.632 37.318 45.048 37.318 22.415 0 37.333-14.811 37.333-37.318 0-22.415-14.918-37.429-37.333-37.429zM934.494 336.241c0 119.566-119.64 217.031-254.032 217.031-142.297 0-254.372-97.465-254.372-217.031 0-119.781 112.073-217.027 254.372-217.027 29.789 0 59.845 7.522 89.755 15.014l82.019-44.923-22.488 74.736c60.040 45.035 104.745 104.755 104.745 172.201zM598.006 373.658c-14.894 0-29.933 14.81-29.933 29.919 0 14.905 15.039 29.909 29.933 29.909 22.61 0 37.432-15.005 37.432-29.909 0-15.112-14.823-29.919-37.432-29.919zM762.503 373.658c-14.799 0-29.717 14.81-29.717 29.919 0 14.905 14.918 29.909 29.717 29.909 22.416 0 37.43-15.005 37.43-29.909 0.001-15.112-15.014-29.919-37.43-29.919z"  horiz-adv-x="1024" />

    
    <glyph glyph-name="zhifubao2" unicode="&#59111;" d="M630.653 304.898c54.383 98.877 74.158 192.81 74.158 192.81h-182.922v69.214h217.529v29.663h-217.529v103.821h-98.877v-103.821h-197.754v-29.663h197.754v-69.214h-168.091v-29.663h341.125c0-4.943 0-4.943-4.943-9.888 0-34.607-24.719-84.045-44.495-123.596-252.136 98.877-326.294 39.551-346.070 29.663-168.091-118.653-9.888-266.968 14.831-262.024 177.979-39.551 291.687 34.607 370.789 128.54 4.943-4.943 9.888-4.943 14.831-4.943 54.383-29.663 316.406-153.26 316.406-153.26s0 108.765 0 148.315c-39.551 0-182.922 49.438-286.743 84.045zM502.112 260.404c-123.596-158.203-271.912-108.765-296.631-98.877-59.326 14.831-79.102 123.596-4.943 158.203 123.596 39.551 232.361-4.943 311.463-44.495-4.943-9.888-9.888-14.831-9.888-14.831z"  horiz-adv-x="1037" />

    
    <glyph glyph-name="gengduo1" unicode="&#58920;" d="M623.517 384c0-30.643 24.841-55.481 55.481-55.481s55.481 24.841 55.481 55.481c0 30.643-24.841 55.481-55.481 55.481-30.643 0-55.481-24.841-55.481-55.481zM457.127 384c0-30.643 24.841-55.481 55.481-55.481s55.481 24.841 55.481 55.481c0 30.643-24.841 55.481-55.481 55.481-30.643 0-55.481-24.841-55.481-55.481zM290.848 384c0-30.643 24.841-55.481 55.481-55.481s55.483 24.841 55.483 55.481c0 30.643-24.841 55.481-55.483 55.481-30.643 0-55.481-24.841-55.481-55.481zM512-58.969c-244.298 0-442.969 198.782-442.969 443.026s198.671 442.913 442.969 442.913c244.188 0 442.969-198.671 442.969-442.913 0-244.242-198.782-443.026-442.969-443.026zM512 793.968c-226.080 0-409.968-183.831-409.968-409.912 0-226.024 183.887-409.968 409.968-409.968 225.969 0 409.912 183.942 409.912 409.968 0 226.080-183.942 409.912-409.912 409.912z"  horiz-adv-x="1024" />

    
    <glyph glyph-name="fanhui1" unicode="&#58924;" d="M738.145 725.751l-74.911 74.911-424.466-424.448 74.911-74.911 0.159 0.159 345.159-345.159 74.169 74.187-345.159 345.141z"  horiz-adv-x="1024" />

    
    <glyph glyph-name="shouji1" unicode="&#58907;" d="M513.228 150.081c-21.759 0-39.46-17.7-39.46-39.461 0-21.759 17.702-39.461 39.46-39.461 21.76 0 39.463 17.701 39.463 39.461-0.001 21.76-17.703 39.461-39.463 39.461zM708.461 771.211h-390.462c-32.847 0-59.572-26.724-59.572-59.572v-655.279c0-32.848 26.724-59.572 59.572-59.572h390.461c32.847 0 59.571 26.723 59.571 59.572v655.279c0.001 32.847-26.722 59.572-59.571 59.572zM317.999 731.497h390.461c10.949 0 19.858-8.909 19.858-19.858v-490.93h-430.176v490.931c0 10.948 8.908 19.857 19.857 19.857zM708.461 36.504h-390.462c-10.949 0-19.858 8.907-19.858 19.857v121.233h430.177v-121.234c0.001-10.949-8.907-19.856-19.857-19.856z"  horiz-adv-x="1024" />

    
    <glyph glyph-name="jiahao1" unicode="&#58985;" d="M921.985 418.619h-375.586v375.37c0 18.847-15.734 34.16-34.619 34.16s-34.619-15.314-34.619-34.16v-375.37h-375.152c-18.847 0-34.162-15.734-34.162-34.619 0-18.889 15.315-34.619 34.162-34.619h375.15v-375.367c0-18.847 15.732-34.163 34.619-34.163 18.885 0 34.619 15.318 34.619 34.163v375.369h375.587c18.847 0 34.167 15.73 34.167 34.619 0 18.885-15.321 34.618-34.167 34.618z"  horiz-adv-x="1024" />

    
    <glyph glyph-name="gengduo" unicode="&#59013;" d="M190 382c0-26.51 21.49-48 48-48s48 21.49 48 48c0 26.51-21.49 48-48 48-26.51 0-48-21.49-48-48zM462 382c0-26.51 21.49-48 48-48s48 21.49 48 48c0 26.51-21.49 48-48 48-26.51 0-48-21.49-48-48zM734 382c0-26.51 21.49-48 48-48s48 21.49 48 48c0 26.51-21.49 48-48 48-26.51 0-48-21.49-48-48z"  horiz-adv-x="1024" />

    
    <glyph glyph-name="guanbi1" unicode="&#58913;" d="M512 805.875c-232.969 0-421.875-188.883-421.875-421.875s188.906-421.875 421.875-421.875 421.875 188.906 421.875 421.875-188.883 421.875-421.875 421.875zM692.633 236.508l-33.14-33.14-147.492 147.492-147.492-147.492-33.14 33.14 147.492 147.492-147.492 147.492 33.14 33.14 147.492-147.468 147.468 147.492 33.14-33.14-147.468-147.516 147.492-147.492z"  horiz-adv-x="1024" />

    
    <glyph glyph-name="lengyin" unicode="&#58940;" d="M766.58 534.969h-22.191c4.195 17.872 6.527 36.167 6.527 54.769 0 131.743-107.173 238.915-238.915 238.915s-238.916-107.173-238.916-238.915c0-18.618 2.336-36.908 6.532-54.769h-22.197c-36.508 0-66.218-29.709-66.218-66.233s29.709-66.231 66.218-66.231h38.042l181.582-434.769c10.701-25.617 28.011-28.391 34.958-28.391s24.258 2.774 34.958 28.391l181.58 434.769h38.042c36.508 0 66.218 29.709 66.218 66.231s-29.709 66.233-66.218 66.233zM314.853 589.739c0 108.71 88.436 197.147 197.147 197.147s197.147-88.436 197.147-197.147c0-18.695-2.693-37.047-7.811-54.769h-378.665c-5.116 17.706-7.815 36.049-7.815 54.769zM512-7.585l-171.28 410.092h342.561l-171.279-410.092zM766.58 444.277h-509.161c-13.475 0-24.447 10.972-24.447 24.462s10.973 24.462 24.449 24.462h49.949c0.031 0 0.057-0.013 0.089-0.013 0.027 0 0.051 0.013 0.075 0.013h409.751c0.105 0.004 0.215-0.007 0.322 0h48.974c13.475 0 24.447-10.972 24.447-24.462s-10.973-24.462-24.449-24.462zM656.497 614.39c-14.589 60.345-63.105 108.26-123.612 122.075-11.244 2.611-22.449-4.461-25.005-15.705-2.57-11.244 4.461-22.449 15.705-25.005 45.183-10.32 81.42-46.108 92.313-91.183 2.311-9.559 10.864-15.977 20.287-15.977 1.618 0 3.277 0.19 4.923 0.585 11.203 2.707 18.098 13.993 15.392 25.209z"  horiz-adv-x="1024" />

    
    <glyph glyph-name="crown" unicode="&#58926;" d="M526.336 515.04c34.816 7.168 61.44 36.864 61.44 73.728 0 41.984-33.792 75.776-75.776 75.776s-75.776-33.792-75.776-75.776c0-34.816 23.552-63.488 55.296-72.704L307.2 192.48 101.376 372.704c18.432 11.264 30.72 30.72 30.72 53.248 0 34.816-28.672 62.464-63.488 62.464-34.816 0-63.488-27.648-63.488-62.464 0-34.816 28.672-62.464 63.488-62.464 9.216 0 17.408 2.048 25.6 5.12l70.656-352.256c33.792-46.08 176.128-79.872 347.136-79.872 166.912 0 307.2 35.84 345.088 79.872l86.016 347.136-203.776-174.08L526.336 515.04zM955.392 488.416c-34.816 0-63.488-27.648-63.488-62.464 0-34.816 28.672-62.464 63.488-62.464 34.816 0 63.488 27.648 63.488 62.464C1018.88 460.768 990.208 488.416 955.392 488.416z"  horiz-adv-x="1024" />

    
    <glyph glyph-name="shoucang3" unicode="&#58897;" d="M723.084 8.36c-9.104 0-18.252 2.271-26.504 6.565l-182.471 90.765-184.073-90.964c-17.8-9.5-42.405-7.835-59.604 4.851-17.356 12.485-26.306 34.67-22.704 56.3l37.952 196.99-144.766 135.131c-15.901 15.669-21.551 38.915-14.802 59.586 6.55 20.819 24.154 35.979 45.858 39.266l200.922 36.84 90.061 183.196c9.801 19.861 29.453 32.19 51.208 32.19 21.651 0 41.757-12.685 51.157-32.345l90.010-182.94 201.475-35.78c21.2-3.181 38.804-18.242 45.455-39.267 6.699-20.565 1.048-43.814-14.402-59.025l-145.218-136.852 36.706-196.637c3.75-21.834-5.204-44.019-22.852-56.854-9.553-7.025-21.506-11.015-33.406-11.015v0zM514.158 150.72l200.426-99.66c6.55-3.485 13.2-2.729 18.4 1.062 5.353 3.944 8.051 10.513 6.953 16.929l-40.754 218.215 161.019 151.761c4.251 4.195 5.952 11.070 3.948 17.235-2.048 6.415-7.297 10.916-13.848 11.875l-221.829 39.316-99.11 201.439c-5.753 11.975-24.703 11.925-30.606-0.053l-98.962-201.285-221.276-40.63c-7.103-1.062-12.353-5.61-14.302-11.876-2.103-6.315-0.352-13.19 4.25-17.789l160.722-150.040-42.108-218.62c-1-6.011 1.652-12.631 6.803-16.371 5.452-4.043 12.502-4.499 18.151-1.469l202.124 99.963zM514.158 150.72z"  horiz-adv-x="1024" />

    
    <glyph glyph-name="tianjia" unicode="&#58910;" d="M513.455 779.508c-218.413 0-395.487-177.075-395.487-395.488s177.035-395.529 395.488-395.529c218.453 0 395.529 177.114 395.529 395.529 0 218.412-177.075 395.488-395.529 395.488zM513.455 29.194c-195.93 0-354.748 158.897-354.748 354.827s158.816 354.787 354.748 354.787c195.969 0 354.787-158.857 354.787-354.787 0-195.93-158.816-354.827-354.787-354.827zM714.169 398.53h-186.164v186.124c0 11.242-9.129 20.37-20.37 20.37-11.201 0-20.331-9.129-20.331-20.37v-186.124h-186.164c-11.201 0-20.331-9.090-20.331-20.331s9.129-20.37 20.331-20.37h186.164v-186.164c0-11.201 9.129-20.331 20.331-20.331 11.242 0 20.37 9.129 20.37 20.331v186.164h186.164c11.201 0 20.331 9.129 20.331 20.37s-9.129 20.331-20.331 20.331z"  horiz-adv-x="1026" />

    
    <glyph glyph-name="tuihuo" unicode="&#58994;" d="M788.776186 633.350181 677.992033 633.350181l0 55.426357c0 34.851763-30.049387 55.357795-55.361889 55.357795L401.05877 744.134333c-27.907607 0-55.357795-17.326621-55.357795-55.357795l0-55.426357L234.913752 633.350181c-30.499641 0-55.357795-24.725124-55.357795-55.361889l0-664.580071c0-30.500665 24.858154-55.293327 55.357795-55.293327l553.862433 0c30.632671 0 55.361889 24.793686 55.361889 55.293327L844.138074 577.988292C844.137051 608.62608 819.407833 633.350181 788.776186 633.350181zM401.05877 688.776538l221.571375 0 0-110.722754L401.05877 578.053784 401.05877 688.776538zM677.992033 190.275993c1.617847-112.668059-110.787222-110.722754-110.787222-110.722754L401.05877 79.553239c-0.193405 36.21583 0 55.43045 0 55.43045s138.691759-0.134053 166.146041 0c27.517727 0.127913 55.425334 22.844288 55.425334 55.292304 0 47.637973-55.425334 55.422264-55.425334 55.422264L456.485127 245.698257l8.826016-21.935592c16.027022-43.742247 0.193405-38.160111 0.193405-38.160111s-77.426417 41.146119-104.424304 59.83783c-26.997887 18.820648-16.223496 38.292118 12.722766 59.189054 28.877701 21.025872 64.183811 39.073924 82.682118 51.791573 18.494213 12.847609 12.589736-10.44898 8.826016-24.600281-3.895727-14.211676-8.826016-30.694069-8.826016-30.694069l110.719684 0C681.686169 301.127683 677.992033 190.275993 677.992033 190.275993z"  horiz-adv-x="1024" />

    
    <glyph glyph-name="yinxingqia" unicode="&#58916;" d="M629.569 249.75h66.38v-76.248h-66.38v76.248zM711.353 249.75h66.32v-76.248h-66.32v76.248zM796.682 249.75h66.358v-76.248h-66.358v76.248zM64.384 129.984c0-44.559 36.287-81.039 80.61-81.039l733.917-0c44.379 0 80.704 36.479 80.704 81.039v340.73l-895.231 0v-340.73zM878.907 719.054h-733.913c-44.327 0-80.61-36.458-80.61-81.021v-90.519h895.231v90.519c0 44.563-36.325 81.021-80.708 81.021z"  horiz-adv-x="1024" />

    
    <glyph glyph-name="guanbi2" unicode="&#58887;" d="M512-96c-265.088 0-480 214.912-480 480s214.912 480 480 480c265.088 0 480-214.912 480-480 0-265.088-214.912-480-480-480zM512 832c-247.424 0-448-200.576-448-448s200.576-448 448-448c247.424 0 448 200.576 448 448 0 247.424-200.576 448-448 448zM647.776 202.976l-135.776 135.776-135.776-135.776-45.248 45.248 135.776 135.776-135.776 135.776 45.248 45.248 135.776-135.776 135.776 135.776 45.248-45.248-135.776-135.776 135.776-135.776-45.248-45.248z"  horiz-adv-x="1024" />

    
    <glyph glyph-name="weixin" unicode="&#59019;" d="M503.04 403.68c17.92 0 30.72 12.8 30.72 30.72 0 17.92-11.52 30.72-30.72 30.72-17.92 0-37.12-11.52-37.12-30.72C465.92 416.48 483.84 403.68 503.04 403.68zM582.4 287.2c-11.52 0-24.32-12.8-24.32-24.32 0-12.8 12.8-24.32 24.32-24.32 19.2 0 30.72 11.52 30.72 24.32C613.12 274.4 600.32 287.2 582.4 287.2zM512 812C229.12 812 0 582.88 0 300c0-282.88 229.12-512 512-512s512 229.12 512 512C1024 582.88 794.88 812 512 812zM410.88 152.8c-30.72 0-55.04 6.4-85.76 12.8l-85.76-42.24 24.32 72.96c-61.44 42.24-97.28 98.56-97.28 165.12C166.4 476.64 276.48 568.8 410.88 568.8c120.32 0 225.28-72.96 247.04-171.52-7.68 1.28-15.36 1.28-23.04 1.28-116.48 0-207.36-87.04-207.36-193.28 0-17.92 2.56-34.56 7.68-51.2C426.24 152.8 418.56 152.8 410.88 152.8zM771.84 67.04l17.92-61.44-66.56 37.12c-24.32-6.4-48.64-12.8-72.96-12.8-116.48 0-208.64 79.36-208.64 177.92 0 97.28 92.16 177.92 208.64 177.92 110.08 0 207.36-79.36 207.36-177.92C857.6 152.8 820.48 104.16 771.84 67.04zM716.8 287.2c-11.52 0-24.32-12.8-24.32-24.32 0-12.8 12.8-24.32 24.32-24.32 17.92 0 30.72 11.52 30.72 24.32C747.52 274.4 734.72 287.2 716.8 287.2zM331.52 465.12c-17.92 0-37.12-11.52-37.12-30.72 0-17.92 17.92-30.72 37.12-30.72 17.92 0 30.72 12.8 30.72 30.72C362.24 452.32 349.44 465.12 331.52 465.12z"  horiz-adv-x="1024" />

    
    <glyph glyph-name="xiala" unicode="&#58882;" d="M513.721 830.508c-246.408 0-446.162-199.753-446.162-446.162s199.753-446.162 446.162-446.162 446.162 199.753 446.162 446.162-199.753 446.162-446.162 446.162zM513.721-24.635c-225.874 0-408.982 183.107-408.982 408.982s183.107 408.982 408.982 408.982 408.982-183.107 408.982-408.982-183.107-408.982-408.982-408.982zM532.312 217.86v370.977h-37.181v-364.101l-141.431 141.432-26.291-26.291 189.751-189.751 189.751 189.751-26.29 26.291z"  horiz-adv-x="1024" />

    
    <glyph glyph-name="zhifubaozhifu" unicode="&#59108;" d="M350.1 348.9c70.5 0 123.7-29 178.5-51.1-57.7-70.2-115.5-124.9-178.5-124.9-55.7 0-148 19-148 86.9 0.1 59.1 81.8 89.1 148 89.1zM911.5 713.5v-659c0-38.5-31.5-70-70-70h-659c-38.5 0-70 31.5-70 70v659c0 38.5 31.5 70 70 70h659c38.5 0 70-31.5 70-70zM911.2 247.8c-55.7 12.9-162.4 51.6-264 87 22 38 40.3 80.7 53.5 127.8l2.5 9.3c2.5 9.5 4.8 22.6 6.9 32.4-2.4 0-159 0-159 0v40.2h199.9v39.8h-199.8v80.5h-80.3v-80.5h-199.7v-39.8h199.7v-40.2h-159.7v-39.8h298.2c-7-36.1-20.4-72.4-37.9-103.9-13.9 4.6-140.4 41.8-222.9 41.8-66 0-175.5-50.5-175.5-142.6 0-90.8 63-141.9 175.5-141.9 108 0 187.5 54 251.8 149.7 122.4-53.3 236.1-112.1 310.8-145.8 0 28 0 79 0 126z"  horiz-adv-x="1024" />

    
    <glyph glyph-name="qq" unicode="&#58881;" d="M512 790.8c-270.8 0-490.4-219.6-490.4-490.4S241.2-190.2 512-190.2s490.4 219.6 490.4 490.4S782.8 790.8 512 790.8zM718 194c-19-1.8-22.2 25.6-35 33.8-5.4-26.6-18.2-45.6-36.4-59.6 17-13 48.2-17.2 46.6-45.4-1.8-34.2-64-43.4-109-40.2-33 2.4-52.6 14.4-71.4 27.2-10.4-3.8-21.2-13.6-32.4-18.2-46-19-146.4-11.4-150.4 29.8-2.8 29.2 30.2 34.4 48 46.6-18.4 13.2-32.2 30.8-36.4 58.4-13.4-3.6-16.4-33-35-32.4-19.8 0.6-22.8 41.6-20.8 67.4 3 39.6 31.8 70.4 46.6 90.8-0.8 22.4 0.8 42.6 10.4 54.4 0.4 57.8 20.4 91.8 49.2 120.6 29.2 29.2 73.6 51.4 118 51.8 53 0.6 94.6-25.2 120.6-50.6 23.2-22.8 38.4-47 45.4-83 2.2-10.8 0.8-24 3.8-37.6 1.2-5.6 7.2-11.6 9-19.4 2.4-10-1.2-22.4 1.2-33.8 1.8-8.6 9.8-15 14.2-20.8 12.8-16.4 29.8-43.4 32.4-68.8C740.4 237 736.2 195.6 718 194z"  horiz-adv-x="1024" />

    
    <glyph glyph-name="duihao" unicode="&#58889;" d="M874.531 637.88c-12.444 11.67-32.071 11.114-43.743-1.362l-412.843-439.558-225.522 222.21c-12.198 12.011-31.792 11.888-43.804-0.309-12.011-12.166-11.857-31.793 0.341-43.773l248.122-244.437c0.092-0.092 0.218-0.124 0.309-0.218s0.124-0.218 0.218-0.309c1.95-1.857 4.302-2.909 6.563-4.148 1.115-0.651 2.075-1.61 3.25-2.074 3.653-1.424 7.522-2.167 11.361-2.167 4.056 0 8.11 0.805 11.888 2.415 1.269 0.527 2.26 1.611 3.437 2.29 2.321 1.361 4.736 2.508 6.717 4.52 0.092 0.092 0.124 0.247 0.217 0.341 0.063 0.092 0.187 0.124 0.278 0.218l434.545 462.623c11.763 12.412 11.113 32.007-1.332 43.74z"  horiz-adv-x="1024" />

    
    <glyph glyph-name="shopping-mall" unicode="&#58945;" d="M896.938 682.86h-767.808l-69.794-208.466c0-64.266 50.778-116.353 113.424-116.353 62.653 0 113.424 52.087 113.424 116.353 0-64.266 50.778-116.353 113.425-116.353 62.638 0 113.429 52.087 113.429 116.353 0-64.266 50.778-116.353 113.424-116.353 62.64 0 113.429 52.087 113.429 116.353 0-64.266 50.772-116.353 113.424-116.353 62.647 0 113.425 52.087 113.425 116.353l-69.801 208.466zM205.917 719.31h614.239c23.132 0 41.882 15.721 41.882 35.138 0 19.417-18.75 35.158-41.882 35.158h-614.239c-23.123 0-41.879-15.743-41.879-35.158 0-19.419 18.756-35.138 41.879-35.138zM739.886 352.405c-30.772-29.612-70.841-45.854-113.425-45.854-42.589 0-82.656 16.242-113.427 45.856-30.773-29.612-70.842-45.856-113.426-45.856-42.587 0-82.653 16.242-113.424 45.852-30.769-29.609-70.835-45.852-113.425-45.852-2.921 0-5.828 0.081-8.722 0.234v-256.578c0-42.759 37.581-70.285 69.794-70.285h558.401c42.025 0 69.805 31.904 69.805 70.285v256.577c-2.896-0.151-5.802-0.234-8.723-0.234-42.59 0-82.657 16.241-113.428 45.855z"  horiz-adv-x="1024" />

    
    <glyph glyph-name="dianhua" unicode="&#59105;" d="M522.472004 775.977575c-263.072581 0-476.335732-213.265198-476.335732-476.341872 0-263.054161 213.263152-476.320383 476.335732-476.320383 263.074627 0 476.320383 213.265198 476.320383 476.320383C998.792387 562.712377 785.546631 775.977575 522.472004 775.977575zM707.826526 80.63385c-33.570583-33.587979-158.74856-1.750877-282.425348 121.911584C301.725414 326.244734 269.942547 451.402245 303.474244 484.971805c29.135574 29.096688 64.611553 79.957053 117.78459 13.751189 53.211922-66.226331 27.03268-84.723613-2.956332-114.753557-21.024849-20.98494 22.793122-74.064856 68.615751-119.887484 45.861514-45.803185 98.900497-89.585341 119.925347-68.658729 30.029944 30.03199 48.544623 56.19179 114.733091 2.976798C787.763113 145.167632 736.942657 109.732585 707.826526 80.63385z"  horiz-adv-x="1024" />

    
    <glyph glyph-name="jiahao" unicode="&#58927;" d="M915.532 402.343h-385.191v385.191c0 10.125-8.218 18.343-18.343 18.343s-18.343-8.218-18.343-18.343v-385.191h-385.191c-10.125 0-18.343-8.218-18.343-18.343s8.218-18.343 18.343-18.343h385.191v-385.191c0-10.125 8.218-18.343 18.343-18.343s18.343 8.218 18.343 18.343v385.191h385.191c10.125 0 18.343 8.218 18.343 18.343s-8.218 18.343-18.343 18.343z"  horiz-adv-x="1024" />

    
    <glyph glyph-name="fenxiang01" unicode="&#58935;" d="M870.679 250.64c0 30.922 0 61.845 0 92.767 0 5.788 0 11.577 0 17.365 0 11.291-9.928 22.108-21.585 21.585-11.694-0.524-21.585-9.485-21.585-21.585 0-19.949 0-39.899 0-59.848 0-29.618 0-59.237 0-88.854 0-8.007 0.151-16.041-0.363-24.035-0.185-2.862-0.439-5.722-0.765-8.572-0.235-1.373-0.402-2.763-0.639-4.132-0.965-5.608-2.21-11.17-3.72-16.657-1.493-5.426-3.253-10.779-5.265-16.035-0.33-0.86-0.678-1.712-1.020-2.567-0.159-0.382-0.312-0.766-0.473-1.127-1.136-2.542-2.333-5.056-3.591-7.541-2.503-4.95-5.241-9.781-8.198-14.474-1.37-2.172-2.787-4.314-4.25-6.424-0.787-1.134-1.585-2.262-2.398-3.379-0.217-0.297-0.435-0.592-0.654-0.888-7.178-8.152-13.985-16.287-22.183-23.512-1.921-1.694-3.879-3.344-5.872-4.953-0.074-0.060-0.148-0.119-0.223-0.178-1.167-0.781-2.271-1.725-3.405-2.54-4.333-3.112-8.808-6.026-13.404-8.734-4.788-2.82-9.708-5.412-14.74-7.767-1.193-0.558-2.399-1.088-3.599-1.633-0.007-0.003-0.011-0.005-0.019-0.007-2.61-1.024-5.223-2.032-7.871-2.951-5.333-1.854-10.756-3.45-16.244-4.778-2.768-0.669-5.553-1.272-8.35-1.805-1.205-0.23-2.412-0.446-3.622-0.651-0.461-0.078-2.397-0.361-3.398-0.515-0.526-0.064-1.005-0.12-1.256-0.147-1.236-0.132-2.473-0.252-3.712-0.358-3.118-0.267-6.244-0.45-9.372-0.55-1.993-0.064-3.986-0.088-5.979-0.092-4.218-0.009-8.437 0-12.654 0-22.874 0-45.75 0-68.623 0-32.294 0-64.589 0-96.883 0-30.346 0-60.693 0-91.039 0-16.995 0-33.992 0-50.987 0-1.205 0-2.41-0.005-3.616 0.005-5.638 0.043-11.272 0.352-16.881 0.933-0.924 0.096-1.848 0.214-2.77 0.324-0.429 0.067-0.86 0.132-1.288 0.202-2.823 0.457-5.633 0.98-8.431 1.575-5.542 1.178-11.023 2.624-16.423 4.337-2.678 0.849-5.336 1.763-7.971 2.74-1.125 0.417-2.246 0.847-3.363 1.287-0.266 0.106-0.531 0.216-0.796 0.323-9.903 4.823-19.553 9.644-28.685 15.885-2.091 1.429-4.128 2.93-6.176 4.417-1.198 0.974-2.402 1.939-3.584 2.933-4.219 3.549-8.274 7.292-12.146 11.217-3.873 3.926-7.563 8.029-11.057 12.296-0.513 0.626-1.016 1.263-1.521 1.897-0.185 0.244-0.368 0.489-0.549 0.735-1.759 2.382-3.457 4.808-5.094 7.275-2.955 4.451-5.708 9.036-8.248 13.736-1.321 2.445-2.584 4.924-3.788 7.43-0.604 1.256-1.191 2.519-1.764 3.789-0.050 0.11-0.098 0.22-0.148 0.331-3.519 10.606-7.451 20.745-9.678 31.781-0.554 2.746-1.013 5.505-1.456 8.269-0.162 1.427-0.322 2.852-0.457 4.282-0.505 5.419-0.737 10.854-0.754 16.296-0.003 0.9 0 1.8 0 2.7 0 6.283 0 12.567 0 18.85 0 25.294 0 50.589 0 75.882 0 32.778 0 65.557 0 98.334 0 28.831 0 57.663 0 86.493 0 13.462-0.037 26.923 0 40.383 0.007 2.794 0.062 5.588 0.19 8.379 0.126 2.704 0.312 5.405 0.563 8.1 0.13 1.407 0.28 2.813 0.446 4.218 1.796 11.185 4.464 22.156 8.297 32.827 0.86 2.393 1.924 4.738 2.777 7.134 0.641 1.433 1.301 2.858 1.98 4.272 2.404 5.005 5.047 9.896 7.912 14.652 2.855 4.736 5.932 9.339 9.218 13.788 0.173 0.233 0.346 0.468 0.523 0.699 0.639 0.799 1.272 1.6 1.922 2.39 1.753 2.128 3.556 4.214 5.407 6.259 3.699 4.087 7.589 8.002 11.651 11.728 1.887 1.731 3.811 3.42 5.771 5.067 1.056 0.888 2.121 1.764 3.197 2.626 0.123 0.099 0.247 0.197 0.372 0.295 8.967 6.514 18.279 12.395 28.249 17.267 2.15 1.050 4.359 1.976 6.518 3.003 0.115 0.049 0.232 0.102 0.347 0.148 1.487 0.592 2.981 1.165 4.484 1.717 5.1 1.874 10.288 3.507 15.542 4.895 5.511 1.456 11.092 2.64 16.718 3.549 0.456 0.074 0.91 0.142 1.366 0.21 0.897 0.109 1.795 0.223 2.693 0.316 2.894 0.301 5.797 0.528 8.703 0.683 20.866 1.118 41.962 0.254 62.842 0.254 30.411 0 60.821 0 91.232 0 5.596 0 11.191 0 16.787 0 11.291 0 22.108 9.928 21.585 21.585-0.524 11.694-9.485 21.585-21.585 21.585-20.53 0-41.061 0-61.591 0-29.616 0-59.231 0-88.847 0-9.313 0-18.601 0.082-27.89-0.814-25.952-2.506-50.669-9.518-73.891-21.457-44.15-22.701-77.812-62.373-95.001-108.682-9.366-25.233-11.658-51.684-11.658-78.338 0-22.853 0-45.705 0-68.559 0-32.839 0-65.677 0-98.515 0-30.653 0-61.308 0-91.961 0-16.726-0.006-33.453 0-50.179 0.013-39.996 11.535-79.988 34.516-112.914 28.349-40.617 70.982-70.803 119.637-81.497 21.109-4.639 42.068-4.838 63.449-4.838 25.349 0 50.698 0 76.047 0 33.34 0 66.681 0 100.021 0 29.198 0 58.394 0 87.593 0 12.997 0 25.994-0.037 38.989 0 49.225 0.141 96.661 18.895 133.099 51.879 37.127 33.608 59.498 80.848 63.759 130.528 1.881 21.92 0.643 44.373 0.643 66.336zM795.772 105.698c-1.536-2.109-0.807-1.039 0.064 0.086-0.021-0.029-0.042-0.057-0.064-0.086zM577.588 531.503c-37.389-23.302-71.945-51.856-100.988-85.029-29.538-33.741-53.264-71.458-70.549-112.814-16.643-39.824-25.947-82.519-27.906-125.633-0.241-5.296-0.352-10.597-0.36-15.898-0.019-11.291 9.942-22.107 21.585-21.585 11.71 0.525 21.564 9.485 21.585 21.585 0.017 10.369 0.46 20.728 1.381 31.057 0.224 2.51 0.474 5.016 0.753 7.52 0.127 1.153 0.263 2.305 0.401 3.458 0.029 0.236 0.059 0.472 0.088 0.709 0.78 4.697 1.405 9.416 2.261 14.103 3.664 20.062 9.102 39.795 16.191 58.916 0.857 2.314 1.738 4.618 2.643 6.912 0.418 1.058 0.841 2.117 1.268 3.172 0.189 0.466 0.787 1.899 1.078 2.607 0.113 0.262 0.211 0.49 0.274 0.632 0.455 1.044 0.913 2.086 1.377 3.126 1.083 2.426 2.192 4.839 3.327 7.241 4.305 9.103 8.986 18.026 14.017 26.748 5.050 8.753 10.454 17.303 16.182 25.628 2.931 4.257 5.947 8.457 9.044 12.595 0.652 0.87 1.309 1.734 1.964 2.6 1.523 1.922 3.043 3.847 4.591 5.749 13.109 16.103 27.469 31.183 42.847 45.133 7.712 6.995 15.693 13.672 23.866 20.118 0.921 0.693 1.832 1.397 2.752 2.088 2.224 1.67 4.463 3.318 6.717 4.945 4.204 3.035 8.461 5.996 12.768 8.882 17.807 11.935 36.465 22.599 55.758 31.943 4.988 2.416 10.019 4.744 15.087 6.982 1.131 0.499 2.264 0.995 3.398 1.484 0.286 0.124 0.573 0.247 0.86 0.369 2.39 0.966 4.763 1.97 7.161 2.921 10.277 4.085 20.693 7.816 31.226 11.188 21.501 6.886 43.476 12.282 65.712 16.181 5.718 1.003 11.453 1.887 17.201 2.711 1.168 0.147 2.336 0.298 3.505 0.44 2.463 0.3 4.928 0.568 7.394 0.832-4.709-4.709-9.417-9.417-14.126-14.126-28.496-28.496-56.993-56.992-85.49-85.49-6.534-6.534-13.071-13.072-19.606-19.606-7.995-7.995-8.591-22.641 0-30.526 8.617-7.911 21.995-8.531 30.526 0 17.969 17.969 35.936 35.937 53.906 53.906 28.496 28.496 56.993 56.992 85.49 85.49 6.534 6.534 13.071 13.071 19.606 19.606 0.75 0.75 1.408 1.562 2.022 2.399 2.831 3.624 4.513 8.095 4.298 12.863-0.054 1.227-0.208 2.433-0.443 3.612-0.7 4.304-2.647 8.42-5.878 11.651-17.969 17.969-35.936 35.937-53.906 53.906-28.496 28.496-56.992 56.993-85.49 85.49-6.534 6.534-13.071 13.071-19.606 19.606-7.995 7.995-22.641 8.591-30.526 0-7.911-8.617-8.531-21.995 0-30.526 17.969-17.969 35.936-35.936 53.906-53.906 23.53-23.53 47.060-47.060 70.589-70.589-32.071-2.967-63.916-8.771-94.827-17.543-44.485-12.623-87.644-31.36-126.907-55.829z"  horiz-adv-x="1024" />

    
    <glyph glyph-name="qq1" unicode="&#58903;" d="M639.030 23.438c-45.83 0-88.309 11.839-115.603 31.941-8.976-0.477-16.895-0.477-25.763 0.018-27.294-20.122-69.772-31.959-115.621-31.959-86.435 0-149.162 38.49-149.162 91.531 0 25.801 15.235 48.923 42.53 65.497-0.411 0.621-0.819 1.243-1.231 1.884-15.986-11.625-33.756-14.944-50.025-9.476-48.687 16.448-51.343 100.988-29.132 172.197 11.882 38.064 33.826 67.892 52.127 87.696-0.194 2.554-0.285 5.074-0.285 7.557 0 20.639 5.387 40.709 16.003 59.749 0 0.283 0 0.585 0 0.887 0 137.326 111.18 249.071 247.852 249.071 136.657 0 247.838-111.745 247.838-249.071 0-0.090 0-0.178 0-0.266 10.845-19.218 16.339-39.485 16.339-60.37 0-2.732-0.107-5.445-0.321-8.18 18.074-19.696 39.767-49.294 51.559-87.056 22.228-71.21 19.572-155.767-29.151-172.235-16.287-5.484-33.932-2.148-49.881 9.389-0.411-0.641-0.819-1.261-1.249-1.899 27.188-16.575 42.354-39.643 42.354-65.375-0.002-53.043-62.748-91.533-149.182-91.533zM529.294 92.132c4.372 0 8.617-1.561 11.937-4.419 20.051-17.23 57.534-27.929 97.798-27.929 62.122 0 112.643 24.754 112.643 55.188 0 16.148-14.61 31.463-40.105 42.037-5.263 2.182-9.204 6.69-10.651 12.174-1.445 5.501-0.212 11.339 3.299 15.81 8.581 10.859 16.201 22.518 22.676 34.619 2.854 5.343 8.189 8.927 14.219 9.548 6.19 0.672 12.043-1.772 15.914-6.403 7.136-8.465 18.588-18.724 28.259-15.476 18.661 6.315 25.511 64.396 5.956 127.021-10.987 35.222-32.665 62.337-48.898 78.86-4.068 4.151-5.923 9.954-4.96 15.669 0.66 4.010 0.98 7.77 0.98 11.497 0 15.831-4.638 31.374-13.808 46.21-1.98 3.194-2.925 6.937-2.677 10.7 0.090 1.243 0.144 2.467 0.144 3.727 0 117.295-94.784 212.729-211.3 212.729-116.513 0-211.315-95.434-211.315-212.729 0-1.403 0.070-2.804 0.178-4.17 0.25-3.744-0.66-7.488-2.621-10.7-8.993-14.711-13.561-30.115-13.561-45.766 0-3.566 0.305-7.238 0.912-11.073 0.909-5.695-0.946-11.461-4.997-15.561-16.433-16.645-38.339-43.939-49.398-79.391-19.535-62.641-12.704-120.705 5.978-127.003 9.847-3.407 21.193 7.062 28.364 15.598 3.907 4.63 9.795 7.044 15.933 6.405 6.048-0.621 11.401-4.223 14.237-9.564 6.425-12.048 14.041-23.726 22.657-34.674 3.516-4.473 4.73-10.327 3.264-15.813-1.445-5.501-5.387-9.989-10.667-12.173-25.583-10.558-40.267-25.908-40.267-42.109 0-30.432 50.524-55.188 112.625-55.188 40.282 0 77.765 10.7 97.836 27.948 3.657 3.157 8.311 4.811 13.343 4.367 12.255-0.942 22.105-0.959 34.718-0.017 0.444 0.034 0.906 0.051 1.353 0.051z"  horiz-adv-x="1024" />

    
    <glyph glyph-name="chanpinxiangqingyegongyingshanglianxidianhuazuoji" unicode="&#58894;" d="M654.198 483.317c10.677-12.714 22.121-25.685 34.327-38.918 10.173-11.703 21.495-24.675 33.961-38.918 12.468-14.243 25.31-28.736 38.525-43.483 16.781-19.336 30.641-36.63 41.579-51.882 10.937-15.251 19.589-29.241 25.953-41.97 6.365-12.728 10.686-24.431 12.964-35.109 2.28-10.677 3.426-21.363 3.443-32.056v-49.588c0-15.269-2.547-29.005-7.642-41.213s-12.085-22.763-20.973-31.667c-8.887-8.904-19.060-15.771-30.519-20.607-11.459-4.835-23.537-7.251-36.232-7.251h-470.745c-13.738 0-26.832 2.287-39.285 6.861s-23.389 11.060-32.814 19.458c-9.423 8.398-16.927 18.441-22.512 30.129-5.582 11.687-8.382 24.911-8.398 39.675v58.743c0 12.207 1.148 23.911 3.443 35.109 2.296 11.198 6.494 22.901 12.597 35.109 6.104 12.207 14.494 25.302 25.172 39.285 10.677 13.983 24.154 29.372 40.431 46.169 13.233 14.243 26.839 28.614 40.822 43.118s26.572 27.597 37.77 39.285c13.233 13.738 25.953 26.962 38.161 39.675l279.97 0.048zM510.76 194.17c13.234 0 25.693 2.547 37.38 7.642 11.687 5.097 21.859 11.963 30.519 20.607 8.66 8.643 15.529 18.947 20.607 30.91 5.078 11.963 7.624 24.554 7.642 37.77 0.016 13.217-2.531 25.677-7.642 37.38-5.111 11.703-11.979 21.877-20.607 30.519-8.627 8.643-18.8 15.511-30.519 20.607-11.719 5.097-24.179 7.642-37.38 7.642-13.201 0-25.79-2.547-37.77-7.642-11.979-5.097-22.283-11.963-30.91-20.607-8.627-8.643-15.495-18.815-20.607-30.519-5.111-11.703-7.658-24.163-7.642-37.38 0.016-13.217 2.563-25.807 7.642-37.77 5.078-11.963 11.947-22.267 20.607-30.91 8.66-8.643 18.962-15.511 30.91-20.607 11.947-5.097 24.536-7.642 37.77-7.642zM893.002 575.654v-48.073c0-13.233-4.703-24.424-14.111-33.571s-20.728-13.731-33.961-13.746h-95.366c-13.233 0-24.424 4.583-33.571 13.746s-13.731 20.353-13.746 33.571v48.073h-382.243v-48.073c0-13.233-4.583-24.424-13.746-33.571s-20.353-13.731-33.571-13.746h-95.365c-13.234 0-24.554 4.583-33.961 13.746s-14.111 20.353-14.111 33.571v49.588c0 6.104 1.53 11.321 4.589 15.65 3.060 4.33 6.876 8.268 11.451 11.817 4.573 3.549 9.66 6.73 15.259 9.547s11.198 5.999 16.799 9.547c5.599 3.060 18.189 9.798 37.77 20.216s44.248 21.224 74.003 32.424c29.755 11.198 63.577 21.119 101.469 29.762s78.202 12.964 120.927 12.964c48.829 0 92.443-4.322 130.84-12.964s71.716-18.565 99.955-29.762c28.238-11.198 50.873-22.006 67.898-32.424s28.598-17.156 34.718-20.216c6.104-3.565 11.956-6.746 17.555-9.547 5.599-2.799 10.686-5.982 15.259-9.547s8.26-7.504 11.060-11.817c2.799-4.313 4.199-9.53 4.2-15.65v-1.514z"  horiz-adv-x="1024" />

    
    <glyph glyph-name="dingwei" unicode="&#58885;" d="M509.901 770.825c-159.339 0-288.516-131.217-288.516-293.094s288.516-476.283 288.516-476.283 288.516 314.406 288.516 476.283-129.178 293.094-288.516 293.094zM509.901 404.449c-59.781 0-108.212 49.201-108.212 109.906s48.432 109.906 108.212 109.906c59.742 0 108.212-49.201 108.212-109.906s-48.471-109.906-108.212-109.906z"  horiz-adv-x="1024" />

    
    <glyph glyph-name="shanchu" unicode="&#58995;" d="M514.487 760.567c-207.12 0-375.63-168.51-375.63-375.63s168.51-375.63 375.63-375.63 375.63 168.51 375.63 375.63-168.51 375.63-375.63 375.63zM514.487 46.808c-186.443 0-338.13 151.687-338.13 338.13s151.687 338.13 338.13 338.13 338.13-151.687 338.13-338.13-151.687-338.13-338.13-338.13zM737.613 403.688h-446.25c-10.358 0-18.75-8.393-18.75-18.75s8.392-18.75 18.75-18.75h446.25c10.358 0 18.75 8.393 18.75 18.75s-8.392 18.75-18.75 18.75z"  horiz-adv-x="1024" />

    
    <glyph glyph-name="dayin" unicode="&#59211;" d="M708.978 57.6v0 307.2h-384v-307.2h384M708.978 19.238h-384c-21.197 0-38.438 17.203-38.438 38.4v307.2c0 21.197 17.242 38.4 38.438 38.4h384c21.197 0 38.4-17.203 38.4-38.4v-307.2c-0.038-21.235-17.203-38.4-38.4-38.4v0 0zM324.978 595.2v115.2h384v-115.2h38.4v115.2c0 21.197-17.203 38.4-38.4 38.4h-384c-21.197 0-38.438-17.203-38.438-38.4v-115.2h38.438zM784.549 633.638h-536.371c-63.591 0-115.162-51.609-115.162-115.2v-268.8c0-42.394 34.368-76.762 76.762-76.762h76.762v38.4h-76.762c-21.197 0-38.4 17.203-38.4 38.4v268.723c0 42.355 34.445 76.8 76.8 76.8h536.409c42.317 0 76.8-34.445 76.8-76.8v-268.8c0-21.197-17.242-38.4-38.4-38.4h-75.648v-38.4h75.648c42.394 0 76.762 34.368 76.762 76.762v268.838c0.038 63.629-51.533 115.238-115.2 115.238z"  horiz-adv-x="1024" />

    
    <glyph glyph-name="weibiaoti11" unicode="&#58976;" d="M511.85 832.242c-247.295 0-447.769-200.468-447.769-447.761 0-247.313 200.474-447.783 447.769-447.783 247.301 0 447.775 200.468 447.775 447.783-0.010 247.293-200.474 447.761-447.775 447.761v0 0zM696.559 281.050c0-12.86-11.446-25.978-31.357-25.978l-109.646 0.341v-89.729c0-19.906-18.541-40.158-38.459-40.158-19.91 0-38.453 20.251-38.453 40.158v89.729l-109.571-0.341c-19.899 0-31.432 7.942-31.432 38.797 0 12.814 5.727 25.637 25.637 25.637h115.366v64.092h-115.366c-19.901 0-25.637 14.922-25.637 25.637 0 19.926 5.727 38.455 25.637 38.455h89.729l-100.74 119.047c-12.922 15.113-11.165 38.058 3.958 50.998v0c15.123 12.931 38.052 11.175 50.993-3.959l109.96-128.188 109.962 128.188c12.951 15.133 35.88 16.889 50.993 3.959v0c15.131-12.942 16.891-35.885 3.95-50.998l-100.892-119.047h89.729c19.91 0 25.637-15.84 25.637-25.637 0-19.896-5.727-38.455-25.637-38.455h-115.366v-64.092h115.366c0-0.001 25.637 1.935 25.637-38.456z"  horiz-adv-x="1024" />

    
    <glyph glyph-name="guanliyuan1" unicode="&#59179;" d="M878.871 127.529c2.678-9.196 5.052-20.918 7.124-35.015 1.971-14.097 3.083-28.447 3.083-42.847 0-14.501-1.163-28.143-3.537-41.078-2.375-12.833-6.012-22.383-10.661-29.002-3.335-4.649-11.924-9.095-25.769-13.339-13.895-4.244-31.276-8.287-52.193-11.823-20.918-3.637-44.211-7.124-69.878-10.357s-51.335-6.113-76.953-8.388c-25.567-2.273-50.628-3.941-74.779-4.951-24.455-0.96-45.727-1.465-63.916-1.465s-39.259 0.708-63.259 1.971c-23.949 1.263-48.607 2.981-73.869 4.951-25.313 1.971-50.476 4.345-75.436 6.923-24.96 2.678-47.748 5.607-68.362 8.892-20.564 3.233-38.148 6.417-52.649 9.397-14.553 2.88-23.444 6.113-26.829 9.398-6.063 4.649-10.812 19.251-14.148 43.807-3.436 24.758-2.021 56.843 4.043 96.202 3.385 22.383 12.683 39.461 27.84 51.335 15.207 11.823 32.691 21.12 52.649 28.143 19.908 6.923 40.825 13.036 62.753 18.24s40.977 13.137 57.247 23.697c12.783 7.781 22.737 15.411 29.861 22.687 7.073 7.225 12.076 14.4 15.108 21.727 3.033 7.225 4.597 14.804 4.597 22.585 0 7.883-0.353 16.775-1.011 26.628-1.364 14.501-6.215 25.668-14.652 33.549-8.539 7.781-17.836 16.017-27.891 24.607-5.407 3.941-9.953 9.651-13.692 17.28-3.687 7.529-7.225 15.259-10.661 23.141-3.335 8.539-6.316 18.089-9.044 28.649-1.364 1.263-3.385 3.588-6.063 6.871-2.021 3.284-4.447 7.731-7.124 13.339-2.677 5.607-5.709 13.642-9.145 24.151-3.335 10.509-5.508 19.908-6.517 28.092-1.061 8.236-0.909 15.309 0.455 21.221 0.708 7.225 2.324 13.491 5.052 18.745 0 23.040 1.364 46.029 4.043 69.069 2.729 19.047 7.073 39.764 13.238 62.148 6.063 22.332 15.815 42.393 29.305 60.127 12.177 16.471 25.313 30.113 39.511 40.977 14.148 10.863 28.851 19.2 44.009 25.162 15.209 5.911 30.517 10.004 46.080 12.329 15.563 2.273 30.367 3.436 44.564 3.436 15.513-1.313 28.193-3.132 37.945-5.407 9.802-2.324 17.785-5.153 23.797-8.388 6.012-3.284 11.268-7.225 15.713-11.873 4.295-4.598 8.943-9.196 13.692-13.793h19.149c6.113 0 12.025-0.807 17.785-2.476 5.811-1.617 11.469-4.749 17.179-9.348 5.709-4.598 12.025-11.217 18.745-19.756 15.612-19.705 27.033-41.229 34.459-64.572s12.833-45.524 16.167-66.593c3.335-24.353 5.407-48.353 6.113-72 1.263-3.284 2.273-7.276 3.083-11.873 0.708-4.597 1.061-10.207 1.465-16.775 0.303-6.567-0.203-14.804-1.465-24.657-1.364-13.137-3.436-23.495-6.113-31.073-2.779-7.579-5.709-13.339-9.196-17.229-3.335-4.649-7.124-7.932-11.065-9.852-2.779-10.56-5.811-20.109-9.095-28.647-3.436-7.883-7.023-15.612-10.661-23.193-3.739-7.579-8.388-13.339-13.692-17.229-11.469-9.196-20.917-16.876-28.345-23.191-7.477-6.215-12.531-16.825-15.309-31.932-1.971-9.297-2.577-18.443-1.971-27.739 0.708-9.196 3.233-18.543 7.579-28.043 4.447-9.549 11.571-18.644 21.221-27.132 9.852-8.589 23.495-16.167 41.129-22.788 15.511-5.811 32.487-11.268 51.031-16.167 18.644-4.953 36.429-10.459 53.709-16.775 17.28-6.215 32.589-14.299 46.080-24.202s22.887-22.737 28.345-38.501v0 0zM553.887 160.068c1.971 3.941 2.172 8.084 0.505 12.329s-4.244 8.388-7.477 12.329c-3.436 3.941-7.478 8.185-12.228 12.833h-46.585c-4.749-4.649-8.438-8.892-11.167-12.833-2.678-3.233-4.851-6.923-6.567-10.863-1.668-3.941-1.516-7.579 0.505-10.863 4.749-9.297 8.791-17.28 12.127-24.202 3.385-6.923 7.175-12.329 11.217-16.167-1.364-6.012-3.436-14.299-6.113-25.263-2.729-10.762-5.204-22.029-7.527-33.449-2.375-11.571-4.396-22.383-6.113-32.589-1.668-10.257-2.527-17.937-2.527-23.193 0-3.233 1.516-7.225 4.548-11.823s6.569-9.397 10.661-14.299c4.043-4.951 8.236-8.993 12.631-12.327 4.447-3.233 8.287-4.953 11.621-4.953 3.385 0 7.377 1.668 12.127 4.953 4.749 3.335 9.297 7.124 13.642 11.367 4.497 4.244 8.185 8.892 11.217 13.793 2.981 4.951 4.548 8.993 4.548 12.327 0 3.941-1.061 10.661-3.082 20.109-1.971 9.549-4.143 20.211-6.619 32.185-2.375 11.823-4.8 23.292-7.579 34.459-2.677 11.167-5.052 20.109-7.124 26.628 4.043 3.233 7.983 7.983 11.722 14.299 3.687 6.265 8.236 14.652 13.643 25.212v0 0z"  horiz-adv-x="1024" />

    
    <glyph glyph-name="gouxuankuang" unicode="&#59020;" d="M513.881 820.782c-243.499 0-440.898-197.406-440.898-440.901s197.403-440.898 440.901-440.898c243.495 0 440.901 197.403 440.901 440.898s-197.409 440.901-440.904 440.901zM513.881-14.604c-217.869 0-394.489 176.618-394.489 394.485s176.618 394.491 394.488 394.491c217.866 0 394.491-176.625 394.491-394.491s-176.625-394.485-394.491-394.485z"  horiz-adv-x="1024" />

    
    <glyph glyph-name="iconfontshanchu" unicode="&#58928;" d="M633.004 510.888h40.475v-323.782h-40.475v323.782zM531.824 187.11v323.782h-40.472v-323.782h20.236zM349.698 510.888h40.474v-323.782h-40.474v323.782zM673.481 632.304v80.946c0 22.252-18.201 40.472-40.475 40.472h-242.833c-22.27 0-40.474-18.221-40.474-40.472v-80.946h-202.362v-40.473h80.947v-526.141c0-22.254 18.198-40.473 40.472-40.473h485.668c22.27 0 40.475 18.221 40.475 40.473v526.142h80.943v40.473h-202.363zM390.171 713.25h242.833v-80.946h-242.833v80.946zM754.423 65.692h-485.668v526.141h485.668v-526.141z"  horiz-adv-x="1024" />

    
    <glyph glyph-name="youjian" unicode="&#58901;" d="M133.422 578.873c-6.59 4.793-10.633 8.538-12.128 11.238-1.493 2.702-2.241 6.743-2.241 12.128v16.178c0 13.775 3.746 25.001 11.238 33.679 7.488 8.678 19.913 13.017 37.27 13.017l688.823-0.89c18.562 0 31.438-3.888 38.621-11.668 7.187-7.779 10.777-18.553 10.777-32.329v-17.964c0-5.379-0.602-8.975-1.809-10.773-1.209-1.801-5.403-5.999-12.589-12.588l-341.263-196.681c-5.383-2.989-12.269-6.429-20.661-10.317-8.391-3.892-14.085-5.837-17.074-5.837-6.59 0-18.859 5.69-36.81 17.074l-14.369 8.992c-10.175 5.385-23.349 12.566-39.515 21.555-16.171 8.983-34.433 19.311-54.774 30.979-20.348 11.666-41.309 23.791-62.882 36.38-50.292 28.736-107.174 61.366-170.645 97.884l0.031-0.062zM872.532 510.621c10.171 6.593 18.257 9.286 24.256 8.077 5.996-1.207 8.993-5.999 8.993-14.369v-313.417c0-20.368-2.241-36.384-6.721-48.052-4.486-11.668-10.768-20.497-18.854-26.498-8.086-5.995-17.513-9.741-28.278-11.234-10.768-1.495-22.447-2.241-35.033-2.244h-599.905c-20.364 0-36.832 2.693-49.398 8.077-12.571 5.385-22.447 12.27-29.628 20.662-7.188 8.395-12.275 18.128-15.264 29.198-2.989 11.075-4.48 22.304-4.48 33.683v301.75c0 11.379 2.848 18.563 8.538 21.551s12.718 1.497 21.090-4.482c3.605-2.395 12.73-8.227 27.387-17.499 14.658-9.277 30.523-19.152 47.591-29.632 17.069-10.477 32.788-20.21 47.158-29.198 14.369-8.983 23.049-14.377 26.036-16.179 7.188-4.788 10.624-9.733 10.317-14.829-0.305-5.097-1.952-10.335-4.942-15.718-2.396-4.194-5.837-11.084-10.317-20.662-4.486-9.578-9.273-19.457-14.369-29.628-5.097-10.175-9.887-19.908-14.369-29.198-4.486-9.293-7.922-16.028-10.317-20.204-2.396-4.176-3.143-7.767-2.241-10.773 0.898-3.011 2.391-5.252 4.48-6.727 2.091-1.474 4.783-1.927 8.077-1.35 3.295 0.576 6.434 2.674 9.423 6.293 1.803 1.801 6.142 6.743 13.018 14.828 6.882 8.086 14.515 16.765 22.906 26.036 8.391 9.273 16.32 18.106 23.797 26.497 7.47 8.391 12.415 13.785 14.829 16.179 2.989 2.989 7.478 6.284 13.478 9.887 5.995 3.6 11.685 3.6 17.069 0 3.6-1.803 9.586-5.393 17.961-10.777 8.375-5.385 17.359-11.075 26.958-17.069l28.737-19.775c9.583-5.995 17.961-11.083 25.147-15.259 7.183-4.788 14.524-7.789 22.015-8.993 7.488-1.207 14.521-1.359 21.091-0.459 6.571 0.898 12.713 2.249 18.419 4.051 5.712 1.803 10.051 3.605 13.018 5.403 2.972 1.801 9.255 5.547 18.854 11.238 9.599 5.69 19.926 11.974 30.979 18.851 11.053 6.882 21.534 13.321 31.438 19.314 9.905 5.995 16.64 10.192 20.204 12.588 5.996 3.6 11.389 4.801 16.179 3.591 4.787-1.209 9.578-4.206 14.367-8.997 1.803-1.798 6.142-6.743 13.019-14.828 6.877-8.080 14.361-17.069 22.446-26.953 8.080-9.887 15.564-19.314 22.441-28.281 6.877-8.963 11.822-15.248 14.828-18.851 3.009-3.604 6.305-5.547 9.887-5.83 3.583-0.289 6.723 0.61 9.428 2.701 2.701 2.086 4.503 4.932 5.402 8.533 0.898 3.604 0.151 7.491-2.241 11.667-1.209 1.803-3.605 7.196-7.187 16.179l-11.668 28.736c-4.194 10.787-8.391 21.111-12.589 30.979-4.192 9.87-7.491 16.898-9.883 21.095-4.793 9.583-7.337 16.764-7.647 21.555-0.305 4.788 2.839 9.282 9.428 13.478 1.207 0.593 7.943 4.934 20.205 13.019 12.256 8.085 26.032 16.914 41.321 26.497 15.289 9.578 29.955 18.859 44.001 27.849 14.042 8.983 23.773 14.971 29.197 17.961l-0.083-0.034zM872.532 510.621z"  horiz-adv-x="1024" />

    
    <glyph glyph-name="order-goods" unicode="&#59071;" d="M914.038586 473.334631L507.21809 473.334631 372.444571 718.225107c-11.880585 21.572318-39.041178 29.5275-60.660568 17.59575-21.620413-11.926634-29.482475-39.041178-17.60189-60.661591l111.052259-201.823612L109.960391 473.335654c-24.569582 0-44.670385-20.100804-44.670385-44.669362 0-24.569582 20.100804-44.670385 44.670385-44.670385l9.962909 0 71.785953-322.522578c4.467755-20.10592 22.334681-34.844599 43.329854-34.844599l553.919738 0c20.996197 0 38.862099 14.738679 43.329854 34.844599l71.785953 322.522578 9.962909 0c24.569582 0 44.670385 20.100804 44.670385 44.670385C958.708971 453.234851 938.609191 473.334631 914.038586 473.334631L914.038586 473.334631zM333.316411 115.96950100000004l-44.670385 0L288.646026 339.325521l44.670385 0L333.316411 115.96950100000004 333.316411 115.96950100000004zM467.326545 115.96950100000004l-44.670385 0L422.656159 339.325521l44.670385 0L467.326545 115.96950100000004 467.326545 115.96950100000004zM601.342818 115.96950100000004l-44.675502 0L556.667316 339.325521l44.675502 0L601.342818 115.96950100000004 601.342818 115.96950100000004zM735.352951 115.96950100000004l-44.670385 0L690.682565 339.325521l44.670385 0L735.352951 115.96950100000004 735.352951 115.96950100000004zM735.352951 115.96950100000004M333.316411 518.005017c0 44.670385-39.98262 89.345887-89.340771 89.345887-49.363268 0-89.344864-44.675502-89.344864-89.345887l89.344864 0L333.316411 518.005017 333.316411 518.005017zM333.316411 518.005017M843.010903 639.067256l-31.272237 31.266098c-34.844599 35.294854-91.573625 35.294854-126.418224 0L532.993127 518.005017l314.485531 0C878.30064 552.849616 876.514971 606.0062800000001 843.010903 639.067256L843.010903 639.067256zM843.010903 639.067256"  horiz-adv-x="1024" />

    
    <glyph glyph-name="play" unicode="&#59116;" d="M506.708 864c-262.178 0-474.708-207.216-474.708-462.839s212.529-462.839 474.708-462.839c262.203 0 474.708 207.216 474.708 462.839 0 255.623-212.505 462.839-474.708 462.839v0zM506.708 4.441000000000031c-224.369 0-406.892 177.959-406.892 396.72s182.523 396.72 406.892 396.72c224.369 0 406.892-177.961 406.892-396.72 0-218.761-182.523-396.72-406.892-396.72v0zM419.938 188.39999999999998c-2.609 0-5.218 0.624-7.63 1.824-5.737 2.807-9.305 8.521-9.305 14.711v377.856c0 6.144 3.495 11.783 9.108 14.64 5.563 2.855 12.332 2.423 17.501-1.081l271.262-183.984c4.505-3.049 7.212-8.039 7.286-13.369 0.074-5.353-2.511-10.368-6.917-13.536l-271.262-193.824c-2.978-2.135-6.499-3.241-10.043-3.241v0z"  horiz-adv-x="1024" />

    
    <glyph glyph-name="fenlei2" unicode="&#59237;" d="M415.743 752.096l-209.177-0.081c-35.010-0.43-63.306-28.871-63.306-64.008v-208.378c0.063-35.088 28.313-63.483 63.306-63.93l209.177-0.065c35.313 0.050 63.93 28.762 63.998 64.090v208.296c0 35.346-28.652 64.027-63.998 64.076v0zM415.648 447.666h-208.297c-17.689 0-32.044 14.356-32.044 32.045v208.296c0 17.689 14.356 32.044 32.044 32.044h208.298c17.688 0 32.045-14.355 32.045-32.044v-208.296c-0.001-17.689-14.339-32.045-32.046-32.045v0zM415.648 447.666zM816.312 752.096l-209.177-0.081c-35.023-0.43-63.305-28.888-63.305-64.008v-208.378c0.064-35.088 28.313-63.483 63.305-63.93l209.177-0.065c35.314 0.050 63.93 28.762 63.998 64.090v208.296c0 35.346-28.652 64.027-63.998 64.076v0zM816.218 447.666h-208.298c-17.689 0-32.045 14.356-32.045 32.045v208.296c0 17.689 14.356 32.044 32.045 32.044h208.298c17.689 0 32.044-14.355 32.044-32.044v-208.296c0-17.689-14.337-32.045-32.044-32.045v0zM816.218 447.666zM415.743 351.526l-209.177-0.082c-35.024-0.43-63.306-28.89-63.306-64.008v-208.378c0.063-35.089 28.313-63.483 63.306-63.931l209.177-0.063c35.313 0.050 63.93 28.761 63.998 64.089v208.298c0 35.347-28.652 64.028-63.998 64.075v0zM415.648 47.096h-208.297c-17.689 0-32.044 14.355-32.044 32.044v208.297c0 17.689 14.356 32.044 32.044 32.044h208.298c17.688 0 32.045-14.355 32.045-32.044v-208.297c-0.001-17.688-14.339-32.044-32.046-32.044v0zM415.648 47.096zM816.312 351.526l-209.177-0.063c-35.023-0.436-63.305-28.891-63.305-64.013v-208.374c0.064-35.092 28.313-63.483 63.305-63.93l209.177-0.064c35.314 0.047 63.93 28.758 63.998 64.090v208.298c0 35.327-28.652 64.009-63.998 64.058v0zM816.218 47.096h-208.298c-17.689 0-32.045 14.355-32.045 32.044v208.297c0 17.689 14.356 32.044 32.045 32.044h208.298c17.689 0 32.044-14.355 32.044-32.044v-208.297c0-17.688-14.337-32.044-32.044-32.044v0zM816.218 47.096z"  horiz-adv-x="1024" />

    
    <glyph glyph-name="churukuzhijian" unicode="&#59118;" d="M292.729 67.689c-65.626 0-119.017 52.142-119.017 116.233v25.333h52.147v-25.333c0-36.358 29.997-65.937 66.869-65.937h464.707c36.869 0 66.866 29.579 66.866 65.937v25.333h52.147v-25.333c0-64.091-53.389-116.233-119.013-116.233h-464.706zM351.983 390.188h-176.481v45.683h176.481v66.574l121.652-89.415-121.652-89.418v66.577zM576.528 413.029l121.649 89.415v-66.573h176.481v-45.683h-176.481v-66.577l-121.649 89.417zM824.301 619.581v19.767c0 36.358-29.996 65.937-66.866 65.937h-464.707c-36.871 0-66.869-29.579-66.869-65.937v-19.767h-52.147v19.776c0 64.091 53.391 116.234 119.017 116.234h464.695c65.632 0 119.025-52.146 119.025-116.242v-19.767h-52.148z"  horiz-adv-x="1024" />

    
    <glyph glyph-name="icon1" unicode="&#58984;" d="M743.921-32.591h-466.824c-54.811 0-77.631 39.325-82.066 60.116-2.424 13.638-56.512 316.784-67.714 399.965-4.083 30.395 1.611 54.659 16.871 72.124 14.512 16.565 37.404 25.7 64.468 25.7 6.256 0 11.226-0.49 13.931-0.836h575.84c2.706 0.352 7.673 0.836 13.927 0.836 27.070 0 49.959-9.135 64.448-25.712 15.287-17.453 20.957-41.717 16.874-72.113-11.18-83.168-65.266-386.326-67.55-399.194-4.575-21.562-27.395-60.887-82.207-60.887v0zM208.657 477.532c-7.581 0-21.35-1.228-28.489-9.38-7.234-8.262-6.979-23.208-5.483-34.3 11.038-82.158 66.684-394.015 67.247-397.153 1.118-4.132 7.676-21.501 35.164-21.501h466.823c30.242 0 35.121 21.362 35.302 22.271 0.423 2.369 56.070 314.227 67.085 396.384 1.497 11.092 1.752 26.039-5.457 34.3-7.144 8.154-20.907 9.38-28.493 9.38-4.55 0-7.766-0.43-8.395-0.527-1.237-0.196-2.615-0.316-3.855-0.316h-579.199c-1.328 0-2.661 0.12-3.989 0.338-0.466 0.068-3.711 0.502-8.261 0.502v0zM208.657 477.532zM275.835 350.378c0-13.073 5.384-26.063 14.626-35.307 9.245-9.245 22.236-14.622 35.307-14.622 13.072 0 26.063 5.378 35.307 14.622 9.244 9.244 14.622 22.235 14.622 35.307 0 13.072-5.379 26.062-14.622 35.306-9.244 9.244-22.235 14.622-35.307 14.622-13.072 0-26.063-5.379-35.307-14.622-9.243-9.244-14.626-22.235-14.626-35.306v0zM275.835 350.378zM645.321 350.378c0-13.073 5.379-26.063 14.622-35.307 9.242-9.245 22.235-14.622 35.306-14.622 13.071 0 26.063 5.378 35.307 14.622 9.242 9.244 14.622 22.235 14.622 35.307 0 13.072-5.381 26.062-14.622 35.306-9.244 9.244-22.237 14.622-35.307 14.622-13.072 0-26.064-5.379-35.306-14.622-9.244-9.244-14.622-22.235-14.622-35.306v0zM645.321 350.378zM723.552 557.829c-13.206 0-23.891 10.699-23.891 23.893 0 96.030-84.864 174.16-189.161 174.16-104.301 0-189.14-78.13-189.14-174.16 0-13.195-10.688-23.893-23.893-23.893-13.207 0-23.894 10.699-23.894 23.893 0 122.384 106.282 221.947 236.928 221.947 130.643 0 236.947-99.563 236.947-221.947 0.001-13.195-10.685-23.893-23.893-23.893v0zM723.552 557.829z"  horiz-adv-x="1024" />

    
    <glyph glyph-name="jiantou-up" unicode="&#59221;" d="M498.4-2.868v573.308c-25.158-27.628-41.569-41.379-63.941-42.791 38.569 62.83 58.647 144.505 77.526 243.219 18.091-98.717 40.159-176.784 77.555-243.219-24.316 4.247-38.997 15.694-65.746 43.651v-574.17h-25.398z"  horiz-adv-x="1024" />

    
    <glyph glyph-name="sousuo11" unicode="&#58921;" d="M260.304 256.106c-104.67 104.647-104.67 274.926 0 379.573 50.708 50.734 118.106 78.619 189.824 78.619 71.663 0 139.062-27.885 189.771-78.619 104.67-104.647 104.67-274.926 0-379.573-50.708-50.68-118.106-78.619-189.824-78.619-71.663 0-139.062 27.938-189.771 78.619v0zM896 37.957l-201.075 201.079c106.962 126.542 102.217 315.322-17.063 434.601-62.919 62.927-145.354 94.363-227.736 94.363-82.434 0-164.87-31.437-227.788-94.363-125.785-125.747-125.785-329.688 0-455.488 62.919-62.873 145.354-94.363 227.736-94.363 73.957 0 147.060 26.719 206.887 77.293l201.128-201.079 37.912 37.957z"  horiz-adv-x="1024" />

    
    <glyph glyph-name="pay-offline" unicode="&#58992;" d="M631.642-16.413c0 26.492-21.426 47.947-48.295 49.311v0.247h-230.429c-28.133 0-50.952-22.195-50.952-49.573 0-27.406 22.819-49.573 50.952-49.573h230.444v0.247c26.869 1.379 48.281 22.834 48.281 49.34v0zM864.51 536.202l-280.669 272.642c-14.066 13.979-37.147 14.226-51.532 0.537l-372.223-354.266c-14.4-13.703-14.676-36.16-0.581-50.153l124.476-124.548v2.483l171.552-144.769h32.952c41.676 35.666 104.284 88.868 127.031 106.011l6.939 6.75c0.029 0.218 0.102 0.334 0.131 0.581-5.356 8.71-16.563 27.523-26.492 47.642l-104.415-102.237c-11.511-10.96-29.584-11.134-40.384-0.363l-217.64 217.263c-10.785 10.742-10.234 28.321 1.263 39.266l297.421 283.065c11.511 10.945 29.584 11.076 40.398 0.363l217.611-209.061c10.8-10.756 10.234-28.321-1.263-39.266l-86.095-84.31c5.153-10.815 14.4-30.092 24.329-50.792l136.611 133.011c14.385 13.703 14.661 36.131 0.581 50.153v0zM301.966 244.587v-167.676c0 0 11.99-29.163 58.442-29.163h219.165c0 0 14.821-2.453 27.639 9.305 31.79 29.235 128.076 119.221 144.334 135.029 19.481 18.944 8.985 52.505 0 69.982-8.985 17.506-68.952 142.911-68.952 142.911s-13.485 26.245-50.952 10.205c-37.466-16.026-40.471-33.532-35.956-64.161 4.5-30.615 44.956-94.776 44.956-94.776s1.495-16.665-9-22.195c-10.481-5.502-136.365-113.4-136.365-113.4h-46.452l-146.86 123.939zM296.987 444.14l172.234 43.519-50.255 48.89 23.966 23.313 58.544-56.947 33.024 32.124-58.529 56.961 24.271 23.618 58.544-56.961 48.092 46.785 30.121-29.294-48.092-46.785 60.677-59.037-24.271-23.617-60.677 59.037-33.024-32.139 60.677-59.037-23.952-23.313-51.765 50.371-45.348-167.008-33.968 33.039c24.387 81.116 40.616 131.792 48.702 152.042l-0.61 0.595c-8.085-3.687-25.969-9.61-53.623-17.797l-102.629-29.613-32.11 31.253z"  horiz-adv-x="1024" />

    
    <glyph glyph-name="money-remind" unicode="&#58949;" d="M552.917 117.67399999999998c-0.299 0-0.598 0-0.896 0-62.336 2.518-122.026 9.941-172.586 21.504-11.478 2.646-18.688 14.038-16.043 25.558 2.646 11.521 14.123 18.73 25.558 16.043 48.042-10.966 105.045-18.048 164.821-20.438 11.775-0.512 20.906-10.41 20.437-22.187C573.739 126.67700000000002 564.309 117.67399999999998 552.917 117.67399999999998zM663.424 105.13c-11.265 0-20.608 8.747-21.291 20.097-0.726 11.733 8.277 21.888 20.054 22.527 180.309 10.582 276.352 60.117 276.352 91.776 0 11.776 9.558 21.333 21.333 21.333 11.776 0 21.334-9.557 21.334-21.333 0-79.957-158.977-125.142-316.502-134.357C664.235 105.13 663.851 105.13 663.424 105.13zM596.523 204.202c-46.635 0-92.374 2.73-135.979 8.192-11.69 1.45-19.968 12.117-18.517 23.808 1.45 11.69 12.032 20.139 23.808 18.56 93.611-11.647 199.382-10.239 288.256 3.713 11.563 1.535 22.528-6.145 24.363-17.793 1.834-11.604-6.187-22.527-17.792-24.362C709.418 208.298 654.165 204.202 596.523 204.202zM851.669 237.312c-9.088 0-17.493 5.846-20.395 14.976-3.499 11.265 2.73 23.211 13.994 26.752 68.779 21.505 93.228 46.635 93.228 61.611 0 36.31-128.513 91.093-329.856 94.293-11.776 0.171-21.163 9.898-20.992 21.675 0.214 11.776 10.069 21.846 21.675 20.992 184.789-2.944 371.883-50.944 371.883-136.96 0-29.142-21.376-70.528-123.137-102.357C855.936 237.56799999999998 853.76 237.312 851.669 237.312zM176.555 1.4930000000000518c-14.336-0.043-27.35 3.968-38.145 13.354-8.917 7.723-9.855 21.205-2.176 30.08 7.723 8.917 21.205 9.855 30.08 2.176 11.733-10.112 62.421 2.518 148.863 79.062 50.476 44.416 103.467 101.888 153.345 166.229C612.608 478.72 663.637 632.832 635.477 657.11c-8.917 7.68-9.941 21.162-2.261 30.08 7.723 8.874 21.12 9.941 30.08 2.261 65.493-56.362-31.445-255.53-161.067-423.168-51.498-66.475-106.41-125.952-158.805-172.074C300.33 55.97900000000004 229.504 1.4930000000000518 176.555 1.4930000000000518zM103.082 65.40700000000004c-19.114 0-31.573 7.04-38.954 13.354C-1.451 135.21000000000004 95.531 334.25 225.195 501.717 342.059 652.629 469.29 758.869 541.781 766.1220000000001c23.808 2.433 38.783-5.76 47.189-12.971 31.146-26.666 28.586-84.267-7.894-171.221-4.522-10.88-16.938-16-27.904-11.435-10.837 4.522-16 17.023-11.435 27.903 33.92 80.939 27.52 115.414 19.413 122.368-3.072 2.688-8.149 3.584-15.189 2.901-51.157-5.12-166.187-91.989-287.104-248.064C114.731 289.49300000000005 63.701 135.38099999999997 91.862 111.10400000000004c3.029-2.603 8.149-3.584 15.231-2.816 51.243 5.163 166.272 92.032 286.977 248.064 32 41.302 61.099 83.285 86.442 124.758 6.144 10.111 19.285 13.227 29.312 7.125 10.069-6.145 13.27-19.285 7.126-29.313-26.155-42.88-56.149-86.187-89.131-128.683-116.65-150.784-243.797-257.066-316.416-264.405C108.544 65.53499999999997 105.771 65.40700000000004 103.082 65.40700000000004zM156.885 6.52800000000002c-4.906 0-9.813 1.664-13.866 5.12l-76.373 65.194c-8.96 7.638-10.027 21.078-2.39 30.038 7.723 9.002 21.162 10.026 30.08 2.389l76.373-65.194c8.96-7.638 10.026-21.077 2.39-30.037C168.874 9.087999999999965 162.902 6.52800000000002 156.885 6.52800000000002zM655.104 648.832c-4.906 0-9.856 1.706-13.866 5.12l-76.16 65.237c-8.96 7.68-9.984 21.162-2.347 30.08 7.723 8.96 21.205 9.94 30.08 2.346l76.16-65.237c8.96-7.68 9.983-21.162 2.346-30.079C667.093 651.3489999999999 661.077 648.832 655.104 648.832zM959.573 99.19899999999996c-11.775 0-21.333 9.558-21.333 21.334l-0.171 213.504c0 11.775 9.558 21.333 21.334 21.333l0 0c11.775 0 21.333-9.558 21.333-21.333l0.171-213.504C980.906 108.79999999999995 971.392 99.19899999999996 959.573 99.19899999999996L959.573 99.19899999999996zM596.694 1.407000000000039c-121.174 0-235.648 18.944-306.262 50.688-10.752 4.821-15.53 17.45-10.709 28.202s17.365 15.659 28.202 10.71c65.365-29.354 173.354-46.934 288.769-46.934 208.768 0 341.973 55.51 341.973 93.696 0 11.775 9.558 21.333 21.334 21.333 11.775 0 21.333-9.558 21.333-21.333C981.333 48.25599999999997 787.84 1.407000000000039 596.694 1.407000000000039z"  horiz-adv-x="1024" />

    
    <glyph glyph-name="yue" unicode="&#59307;" d="M511.7-63.27c-276.955 0-393.1 100.046-393.1 305.648 0 170.33 131.717 348.078 291.392 404.146h203.4c159.696-56.068 291.412-233.816 291.412-404.146-0.005-205.604-116.151-305.648-393.103-305.648v0 0zM620.639 274.581v0.065c18.382 0.094 33.247 15.174 33.247 33.748 0 18.599-14.866 33.665-33.247 33.785v0.083h-67.437c0.149 0.749-0.086 1.429 0 2.187l79.018 81.589c12.902 14.662 6.332 26.783-6.695 40.083-13.116 13.373-34.532 16.174-45.13 4.521l-67.95-73.154-73.385 74.132c-9.299 9.377-27.387 6.314-40.375-6.814-13.031-13.159-16.015-31.411-6.759-40.787l75.073-75.795c-1.409-1.812-2.304-3.821-2.86-5.961h-60.995v-0.065h-0.171c-18.487 0-33.46-15.118-33.46-33.79 0-18.651 14.973-33.794 33.46-33.794 0.043 0 0.107 0.030 0.171 0.030v-0.065h66.884v-33.653h-66.884v-0.094h-0.171c-18.487 0-33.46-15.12-33.46-33.794 0-18.652 14.973-33.792 33.46-33.792 0.043 0 0.107 0.043 0.171 0.043v-0.043h66.884v-34.018h0.683c-0.514-2.634-0.834-5.394-0.834-8.208 0-23.334 18.728-42.239 41.823-42.239 23.097 0 41.824 18.906 41.824 42.239 0 2.813-0.32 5.573-0.832 8.208h0.384v34.018l67.566 0.043c18.382 0.105 33.27 15.172 33.27 33.749 0 18.585-14.888 33.656-33.27 33.775v0.113h-67.566v33.658l67.565-0.002zM670.627 781.443l-7.036-8.876c-0.171-0.171-0.257-0.358-0.428-0.53l-59.461-75.060h-200.731l-59.352 74.931c-0.448 0.428-0.746 0.948-1.132 1.418l-6.439 8.117 1.131 2.288c-0.533 2.079-1.259 4.107-1.259 6.358 0 10.759 6.694 19.845 16.079 23.542l0.769 1.6c0 0 82.235 16.612 150.571 16.89 71.486 0.299 150.546-16.89 150.546-16.89l0.811-1.618c9.32-3.732 15.973-12.797 15.973-23.526 0-2.207-0.727-4.172-1.239-6.204l1.196-2.441zM670.627 781.443z"  horiz-adv-x="1024" />

    
    <glyph glyph-name="kxborder" unicode="&#58938;" d="M808.076 9.789h-593.326c-20.48 0-37.085 16.602-37.085 37.082v667.49c0 20.48 16.605 37.085 37.085 37.085h74.166v-37.085c0-20.479 16.602-37.083 37.083-37.083h370.828c20.479 0 37.082 16.605 37.082 37.083v37.085h74.167c20.479 0 37.083-16.605 37.083-37.085v-667.49c0.001-20.479-16.604-37.082-37.082-37.082zM483.601 566.029h-166.875c-15.36 0-27.809-12.451-27.809-27.812 0-15.36 12.451-27.812 27.809-27.812h166.875c15.36 0 27.812 12.452 27.812 27.812 0 15.362-12.452 27.812-27.812 27.812zM706.097 436.239h-389.372c-15.36 0-27.811-12.451-27.811-27.812 0-15.36 12.451-27.812 27.811-27.812h389.372c15.36 0 27.809 12.452 27.809 27.812 0 15.361-12.449 27.812-27.809 27.812zM706.097 306.449h-389.372c-15.36 0-27.811-12.449-27.811-27.812 0-15.36 12.451-27.812 27.811-27.812h389.372c15.36 0 27.809 12.452 27.809 27.812 0 15.361-12.449 27.812-27.809 27.812zM678.286 714.361h-333.745c-10.241 0-18.542 8.301-18.542 18.542v37.083c0 10.241 8.301 18.542 18.542 18.542h92.706c0 40.962 33.204 74.167 74.166 74.167 40.96 0 74.166-33.205 74.166-74.167h92.706c10.239 0 18.542-8.301 18.542-18.542v-37.083c0-10.241-8.304-18.542-18.542-18.542zM511.412 807.069c-10.241 0-18.542-8.302-18.542-18.544s8.301-18.542 18.542-18.542c10.239 0 18.542 8.301 18.542 18.542s-8.302 18.544-18.542 18.544z"  horiz-adv-x="1024" />

    
    <glyph glyph-name="fenxiang" unicode="&#58914;" d="M696.066691 523.224902c59.978023 0 108.789729 48.799426 108.789729 108.769262 0 60.001559-48.810682 108.787682-108.789729 108.787682-59.98007 0-108.791775-48.786123-108.791775-108.787682 0-14.093996 2.905166-27.496238 7.806803-39.86494L378.997312 466.786495c-19.721157 19.875676-46.985104 32.233122-77.138868 32.233122-59.968813 0-108.768239-48.812729-108.768239-108.789729 0-59.992349 48.799426-108.800985 108.768239-108.800985 30.593785 0 58.208726 12.795421 77.974909 33.221636l214.259852-135.062092c-4.133134-11.490705-6.818289-23.702841-6.818289-36.606733 0-59.992349 48.811706-108.780519 108.791775-108.780519 59.978023 0 108.789729 48.78817 108.789729 108.780519 0 59.977-48.810682 108.788705-108.789729 108.788705-31.200606 0-59.122539-13.357216-78.975702-34.45472L403.358139 352.025775c4.507664 11.951193 7.277754 24.74559 7.277754 38.246069 0 13.929244-2.858094 27.121707-7.652284 39.367613L619.288027 555.092703C638.923226 535.392012 666.075633 523.224902 696.066691 523.224902zM696.066691 207.576895c35.594683 0 64.638159-28.991288 64.638159-64.629973 0-35.629475-29.043477-64.608483-64.638159-64.608483-35.620265 0-64.643276 28.977985-64.643276 64.608483 0 11.881608 3.475148 22.867824 9.060353 32.451086 0.177032 0.220011 0.396019 0.399089 0.572028 0.661056 0.264013 0.385786 0.264013 0.832971 0.485047 1.209548C652.97322 195.405691 673.067884 207.576895 696.066691 207.576895zM301.857421 325.566146c-35.640732 0-64.60746 28.988218-64.60746 64.662719 0 35.585473 28.967752 64.606437 64.60746 64.606437 21.052478 0 39.652092-10.299577 51.458999-25.966395 0.286526-0.704035 0.286526-1.427512 0.725524-2.122337 1.011027-1.790786 2.308579-3.373841 3.737114-4.759397 5.365194-9.420557 8.706289-20.173458 8.706289-31.758308 0-12.664438-3.802606-24.430412-10.134825-34.43323-0.066515-0.053212-0.109494-0.084934-0.153496-0.14224-0.088004-0.128937-0.066515-0.261966-0.177032-0.406253C344.499613 337.437521 324.569702 325.566146 301.857421 325.566146zM696.066691 696.609811c35.594683 0 64.638159-29.000498 64.638159-64.639183 0-35.619242-29.043477-64.596204-64.638159-64.596204-35.620265 0-64.643276 28.976962-64.643276 64.596204C631.423415 667.632849 660.402423 696.609811 696.066691 696.609811z"  horiz-adv-x="1024" />

    
    <glyph glyph-name="pinglun1" unicode="&#58902;" d="M326.039 495.285c-25.557 0-46.279-21.489-46.279-48.008s20.721-48.008 46.279-48.008c25.557 0 46.279 21.489 46.279 48.008 0 26.517-20.721 48.008-46.279 48.008zM511.156 495.285c-25.557 0-46.279-21.489-46.279-48.008s20.722-48.008 46.279-48.008 46.279 21.489 46.279 48.008c0 26.517-20.722 48.008-46.279 48.008zM696.273 495.285c-25.557 0-46.28-21.489-46.28-48.008s20.722-48.008 46.28-48.008 46.279 21.489 46.279 48.008c0 26.517-20.722 48.008-46.279 48.008zM788.829 735.312h-555.348c-51.115 0-92.557-42.991-92.557-96.015v-360.040c0-53.025 42.369-101.903 94.659-101.903h141.052c24.586-26.191 126.342-131.54 126.342-131.54 4.519-4.7 11.841-4.7 16.359 0 0 0 74.502 84.469 123.042 131.54h144.35c52.291 0 94.66 48.877 94.66 101.903v360.040c0 53.024-41.443 96.015-92.558 96.015zM835.109 279.256c0-26.508-22.237-54.324-48.382-54.324h-141.954c-17.196 0-32.653-17.683-32.653-17.683l-99.676-103.382-99.653 103.382c0 0-18.983 17.683-35.251 17.683h-141.954c-26.146 0-48.381 27.817-48.381 54.324v360.040c0 26.518 20.722 48.008 46.279 48.008h555.348c25.557 0 46.281-21.491 46.281-48.008v-360.040z"  horiz-adv-x="1024" />

    
    <glyph glyph-name="dingdan1" unicode="&#58997;" d="M390.7948088888889 778.1979022222222c-12.209493333333334 0-22.14456888888889 9.91687111111111-22.14456888888889 22.045582222222222 0 12.190151111111112 9.931662222222222 22.105884444444442 22.14456888888889 22.105884444444442h247.71128888888887c12.209493333333334 0 22.14229333333333-9.91687111111111 22.14229333333333-22.105884444444442 0-12.133262222222221-9.930524444444444-22.045582222222222-22.14229333333333-22.045582222222222h-247.71128888888887zM262.6139022222222 155.2213333333333c-12.209493333333334 0-22.083128888888886 9.91687111111111-22.083128888888886 22.105884444444442 0 12.192426666666666 9.872497777777777 22.046719999999997 22.083128888888886 22.046719999999997h504.0116622222222c12.209493333333334 0 22.14456888888889-9.856568888888889 22.14456888888889-22.046719999999997 0-12.190151111111112-9.931662222222222-22.105884444444442-22.14456888888889-22.105884444444442h-504.0116622222222zM262.6139022222222 348.27946666666674c-12.209493333333334 0-22.083128888888886 9.915733333333332-22.083128888888886 22.103608888888886 0 12.132124444444443 9.872497777777777 22.046719999999997 22.083128888888886 22.046719999999997h504.0116622222222c12.209493333333334 0 22.14456888888889-9.91687111111111 22.14456888888889-22.046719999999997 0-12.191288888888888-9.931662222222222-22.103608888888886-22.14456888888889-22.103608888888886h-504.0116622222222zM262.6139022222222 534.8636444444444c-12.209493333333334 0-22.083128888888886 9.856568888888889-22.083128888888886 22.046719999999997s9.872497777777777 22.045582222222222 22.083128888888886 22.045582222222222h504.0116622222222c12.209493333333334 0 22.14456888888889-9.856568888888889 22.14456888888889-22.045582222222222s-9.931662222222222-22.046719999999997-22.14456888888889-22.046719999999997h-504.0116622222222zM756.0521955555556 778.1979022222222c-12.150328888888888 0-22.083128888888886 9.91687111111111-22.083128888888886 22.045582222222222 0 12.190151111111112 9.933937777777777 22.105884444444442 22.083128888888886 22.105884444444442h113.05073777777778c18.224924444444447 0 34.81827555555556-7.466097777777778 46.79452444444444-19.421866666666666 12.034275555555555-12.01607111111111 19.512888888888888-28.57870222222222 19.512888888888888-46.77745777777778v-732.5684622222223c0-18.081564444444442-7.477475555555555-34.58844444444444-19.512888888888888-46.66140444444444h-0.05916444444444444v-0.06030222222222222l-0.23551999999999998-0.23324444444444442c-12.034275555555555-11.839715555555555-28.50702222222222-19.24664888888889-46.50097777777777-19.24664888888889h-708.9015466666666c-18.226062222222218 0-34.82055111111111 7.466097777777778-46.85482666666666 19.421866666666666-11.977386666666666 12.01607111111111-19.45486222222222 28.58097777777778-19.45486222222222 46.77973333333333v732.5673244444444c0 18.140728888888887 7.477475555555555 34.703359999999996 19.45486222222222 46.660266666666665l0.11605333333333333 0.11605333333333333c11.977386666666666 11.958044444444445 28.568462222222223 19.421866666666666 46.73763555555556 19.421866666666666h112.98929777777776c12.209493333333334 0 22.14343111111111-9.91687111111111 22.14343111111111-22.105884444444442 0-12.133262222222221-9.931662222222222-22.045582222222222-22.14343111111111-22.045582222222222h-112.98929777777776c-6.076871111111112 0-11.625813333333333-2.4496355555555556-15.598933333333333-6.472817777777777-4.031146666666666-3.965155555555555-6.486471111111111-9.507271111111109-6.486471111111111-15.572764444444443v-732.5684622222223c0-6.009742222222222 2.5122133333333334-11.547306666666666 6.54336-15.515875555555555 3.97312-4.023182222222222 9.5232-6.531982222222222 15.539768888888888-6.531982222222222h708.9004088888889c6.073457777777778 0 11.564373333333332 2.4507733333333332 15.539768888888888 6.415928888888889l0.11605333333333333 0.11605333333333333c3.97312 3.9674311111111114 6.426168888888888 9.450382222222222 6.426168888888888 15.515875555555555v732.5684622222223c0 6.007466666666668-2.5110755555555553 11.547306666666666-6.542222222222222 15.515875555555555-3.974257777777778 4.023182222222222-9.525475555555555 6.533119999999999-15.539768888888888 6.533119999999999h-113.05073777777778zM915.6027733333333-23.372231111111205c-8.644835555555554-8.341048888888889-22.432426666666668-8.224995555555555-30.96120888888889 0.29127111111111115z"  horiz-adv-x="1024" />

    
    <glyph glyph-name="wo" unicode="&#59015;" d="M516.28 723.431c47.302 0 91.773-18.42 125.22-51.868s51.868-77.918 51.868-125.22-18.421-91.773-51.868-125.22-77.919-51.868-125.22-51.868-91.773 18.42-125.22 51.868-51.868 77.918-51.868 125.22 18.421 91.774 51.868 125.22c33.447 33.449 77.918 51.868 125.22 51.868M516.28 770.354c-123.719 0-224.012-100.294-224.012-224.012s100.294-224.012 224.012-224.012 224.012 100.295 224.012 224.012-100.295 224.012-224.012 224.012v0zM613.662 380.922c-4.34 1.272-8.71 2.474-13.117 3.581 0.16-1.242 0.255-2.489 0.255-3.737 0-8.474-3.407-16.693-9.395-22.682-6.333-6.333-13.954-8.778-22.682-9.395-23.456-1.663-46.76 2.399-69.931 5.673-10.297 1.292-20.618 2.245-31.008 2.296-16.698 0.082-30.747 13.257-31.979 29.728-147.486-33.494-259.849-159.408-272.986-313.63-0.003-0.007-0.007-0.011-0.008-0.018 0-0.005-0.006-0.103-0.014-0.277-0.835-9.903-1.271-19.918-1.271-30.038 0-5.345 0.127-10.661 0.363-15.947 0 0 0.224-4.381 0.366-6.756v0l0.023-0.678c0.441-12.949 11.297-23.090 24.246-22.648 12.95 0.441 23.090 11.297 22.649 24.246l-0.719 21.092c-0.003 0.229-0.007 0.46-0.007 0.69 0 41.303 8.079 81.346 24.012 119.016 15.4 36.408 37.454 69.116 65.554 97.216 28.099 28.099 60.807 50.154 97.216 65.553 37.671 15.933 77.713 24.012 119.016 24.012 28.316 0 56.040-3.8 82.814-11.321-0.096 1.332-0.163 2.67-0.163 4.023 0 15.47 6.451 29.665 16.767 39.997zM497.349 354.099c-21.444-3.104-43.002-6.458-64.692-4.922-8.727 0.618-16.349 3.062-22.682 9.395-5.988 5.988-9.395 14.209-9.395 22.682 0 1.248 0.093 2.495 0.255 3.737-4.408-1.108-8.778-2.309-13.117-3.581 10.317-10.332 16.767-24.526 16.767-39.999 0-1.353-0.066-2.692-0.163-4.023 26.774 7.523 54.497 11.321 82.814 11.321 3.935 0 7.852-0.096 11.761-0.243-0.609 1.843-1.129 3.72-1.546 5.634zM862.49 72.949c-0.008 0.174-0.013 0.273-0.014 0.277-0.003 0.007-0.007 0.011-0.008 0.018-6.381 74.906-36.203 143.1-82.062 197.293-10.443-11.303-25.322-18.47-41.627-18.47-1.648 0-3.277 0.089-4.894 0.231 24.96-26.523 44.775-56.874 58.943-90.372 15.933-37.671 24.012-77.713 24.012-119.016 0-0.229-0.005-0.461-0.007-0.69l-0.719-21.092c-0.441-12.95 9.698-23.806 22.648-24.246s23.806 9.698 24.246 22.649l0.023 0.678c0.142 2.373 0.366 6.756 0.366 6.756 0.235 5.287 0.363 10.602 0.363 15.947 0 10.118-0.436 20.134-1.271 30.038zM784.634 266.873l-16.753 18.487-0.751 1.78c0 0-13.356 15.267-17.273 16.442-0.002 0.001-0.004 0-0.006 0.001-8.59 4.964-19.744 4.088-27.49-2.931-9.602-8.701-10.331-23.538-1.629-33.139l29.132-32.146c8.701-9.602 23.539-10.332 33.139-1.631 9.602 8.701 10.331 23.538 1.63 33.139z"  horiz-adv-x="1024" />

    
    <glyph glyph-name="shaixuan" unicode="&#58905;" d="M906.352 706.029c0 37.163-30.233 67.399-67.394 67.399h-653.911c-37.162 0-67.399-30.234-67.399-67.399 0-14.877 5.024-29.409 14.183-41.158l-0.49-0.452 6.896-7.148c1.583-1.643 214-216.033 227.391-229.549-0.004-56.781-0.019-240.966 0-242.301l0.065-4.37h58.46v269.854l-1.285 1.297c-2.096 2.113-210.564 212.266-239.43 241.567l0.251 0.771-4.924 4.209c-2.308 1.972-3.578 4.557-3.578 7.28 0 5.436 4.422 9.858 9.859 9.858h653.904c5.426 0 9.841-4.422 9.841-9.858 0-2.729-1.267-5.316-3.563-7.277l-5.397-4.615 0.347-0.817c-29.434-30.003-231.461-232.532-240.153-241.248l-1.441-1.443v-452.148l57.761 0.029-0.017 4.452c-0.007 1.673-0.002 279.501-0.001 384.093l0.001 40.373 236.677 237.068-0.671 0.585c9.053 11.714 14.018 26.169 14.018 40.946z"  horiz-adv-x="1024" />

    
    <glyph glyph-name="youhuiquan" unicode="&#59025;" d="M936.758 474.34c24.412 14.58 25.102 25.744 25.102 45.175 0 26.372 0 135.526 0 135.526 0 37.424-33.712 67.758-75.303 67.758h-752.918c-41.579 0-75.289-30.335-75.289-67.758 0 0 0-124.758 0-135.526 0-20.244 1.563-33.74 25.101-45.175 34.277-14.371 75.285-43.401 75.285-90.354 0-60.932-42.548-80.752-73.804-90.25-22.013-12.389-26.579-32.798-26.579-45.271 0-10.764 0-135.526 0-135.526 0-37.435 33.711-67.771 75.289-67.771h752.924c41.585 0 75.297 30.334 75.297 67.771 0 0 0 90.347 0 135.526 0 24.667-6.302 32.492-25.098 45.175-54.825 25.43-75.297 48.073-75.297 90.346 0 42.287 19.172 63.319 75.293 90.354zM660.684 395.28c0-6.231-5.613-11.294-12.548-11.294h-112.94v-45.173h112.94c6.935 0 12.548-5.057 12.548-11.295v-22.586c0-6.237-5.613-11.295-12.548-11.295h-112.94v-79.062c0-6.229-5.613-11.286-12.547-11.286h-25.102c-6.924 0-12.547 5.059-12.547 11.286v79.062h-112.937c-6.934 0-12.548 5.059-12.548 11.295v22.586c0 6.239 5.614 11.295 12.548 11.295h112.937v45.173h-112.937c-6.934 0-12.548 5.063-12.548 11.294v22.595c0 6.231 5.614 11.294 12.548 11.294h95.017l-103.154 99.734c-4.411 4.342-4.411 11.383 0 15.726l15.977 15.721c4.404 4.346 11.557 4.346 15.968 0l114.111-110.33 114.059 110.297c4.445 4.374 11.649 4.374 16.098 0l16.098-15.845c4.445-4.384 4.445-11.473 0-15.851l-102.855-99.453h94.752c6.93 0 12.548-5.062 12.548-11.294v-22.594z"  horiz-adv-x="1024" />

    
    <glyph glyph-name="fenlei" unicode="&#59067;" d="M153.018 618.074c0-18.166 14.727-32.893 32.893-32.893s32.893 14.727 32.893 32.893c0 18.166-14.727 32.893-32.893 32.893-18.166 0-32.893-14.727-32.893-32.893zM849.45 377.284h-538.347c-11.89 0-21.53 9.641-21.53 21.531s9.641 21.531 21.53 21.531h538.347c11.892 0 21.531-9.641 21.531-21.531s-9.64-21.531-21.531-21.531zM849.45 128.397h-538.347c-11.89 0-21.53 9.637-21.53 21.53 0 11.89 9.641 21.531 21.53 21.531h538.347c11.892 0 21.531-9.642 21.531-21.531 0-11.893-9.64-21.53-21.531-21.53zM849.45 596.543h-538.347c-11.89 0-21.53 9.64-21.53 21.531 0 11.89 9.641 21.529 21.53 21.529h538.347c11.892 0 21.531-9.64 21.531-21.529 0-11.892-9.64-21.531-21.531-21.531zM153.017 398.815c0-18.167 14.727-32.894 32.894-32.894s32.894 14.727 32.894 32.894c0 18.167-14.727 32.894-32.894 32.894-18.167 0-32.894-14.727-32.894-32.894zM153.019 149.925c0-18.166 14.726-32.892 32.892-32.892s32.892 14.726 32.892 32.892c0 18.166-14.726 32.892-32.892 32.892-18.166 0-32.892-14.726-32.892-32.892z"  horiz-adv-x="1024" />

    
    <glyph glyph-name="iconLocation" unicode="&#58908;" d="M512.741 734.041c80.878 0 148.712-28.53 196.217-82.578 48.378-55.054 70.233-132.44 59.938-212.357-16.229-125.373-182.084-307.063-255.85-377.778-72.065 70.583-235.915 253.233-256.68 379.39-12.522 76.297 7.024 151.46 53.569 206.338 47.636 56.1 119.658 86.984 202.805 86.984M512.741 782.026c-208.606 0-333.63-166.989-303.704-349.029 28.399-172.966 277.182-415.729 303.704-436.188 26.567 20.46 281.195 262.349 303.748 436.188 23.426 182.039-96.189 349.029-303.748 349.029v0zM512.741 563.038c46.546 0 84.456-37.908 84.456-84.456 0-46.589-37.864-84.456-84.456-84.456-46.546 0-84.456 37.908-84.456 84.456 0 46.546 37.864 84.456 84.456 84.456M512.741 611.023c-73.069 0-132.44-59.458-132.44-132.44 0-73.025 59.372-132.44 132.44-132.44 73.025 0 132.44 59.416 132.44 132.44-0.045 72.982-59.416 132.44-132.44 132.44v0z"  horiz-adv-x="1024" />

    
    <glyph glyph-name="sort" unicode="&#58912;" d="M512.0807495117188 699.76025390625L694.0044555664061 517.8348999023438 763.8033447265625 518.6621704101562 512.0807495117188 770.3814697265625 260.35980224609375 518.6621704101562 330.77996826171875 518.4578247070312ZM512.0807495117188 68.52978515624989L330.95135498046875 249.6558837890625 260.35980224609375 249.62786865234375 512.0807495117188-2.08978271484375 763.8033447265625 249.62786865234375 693.3617553710938 249.8074951171875ZM90.68200683593744 405.40521240234375l842.80078125 0 0-46.76715087890625-842.80078125 0 0 46.76715087890625Z"  horiz-adv-x="1024" />

    
    <glyph glyph-name="xiaoliangyuce" unicode="&#59534;" d="M447.84 423.63c-11.805 0-21.386-9.538-21.386-21.386v-299.411c0-11.763 9.582-21.386 21.386-21.386s21.386 9.582 21.386 21.386v299.411c0 11.847-9.582 21.386-21.386 21.386zM276.749 295.313c-11.805 0-21.386-9.538-21.386-21.386v-171.091c0-11.763 9.582-21.386 21.386-21.386s21.386 9.582 21.386 21.386v171.091c0 11.847-9.582 21.386-21.386 21.386zM618.932 338.085c-11.805 0-21.386-9.539-21.386-21.386v-213.864c0-11.763 9.582-21.386 21.386-21.386s21.386 9.623 21.386 21.386v213.864c0 11.847-9.582 21.386-21.386 21.386zM790.024 423.63c-11.805 0-21.386-9.538-21.386-21.386v-299.411c0-11.763 9.582-21.386 21.386-21.386s21.386 9.623 21.386 21.386v299.411c0 11.847-9.582 21.386-21.386 21.386zM839.811 721.63c-4.363 2.096-9.111 2.353-13.687 1.411h-121.645c-11.805 0-21.386-9.539-21.386-21.386 0-11.763 9.582-21.386 21.386-21.386h73.269l-203.428-204.412-155.436 155.351c-0.172 0.257-0.214 0.513-0.428 0.684s-0.428 0.257-0.642 0.428l-0.299 0.342c-6.074 6.116-14.971 7.528-22.414 4.363-2.994-1.113-5.859-2.693-8.255-5.132l-210.529-211.683c-8.726-8.854-8.726-23.055 0-31.823 8.768-8.768 22.927-8.768 31.652 0l197.396 198.509 157.062-157.104c8.041-8.041 20.959-8.041 29 0 0.128 0.085 0.128 0.256 0.257 0.342 0.428 0.428 0.941 0.513 1.37 0.898l218.355 219.426v-77.119c0-11.763 9.582-21.386 21.386-21.386s21.386 9.581 21.386 21.386v128.317c0 9.367-6.030 17.023-14.373 19.975z"  horiz-adv-x="1024" />

    
    <glyph glyph-name="yunshangcheng" unicode="&#58973;" d="M591.243 258.205c-101.423-52.867-201.814-95.661-290.59-124.772-13.586-4.442-26.887-8.555-39.888-12.346 29.334-26.082 63.024-47.261 99.292-62.281 42.566-17.634 88.624-26.797 134.701-26.797 46.077 0 92.137 9.162 134.708 26.797 42.566 17.63 81.613 43.723 114.193 76.304 32.581 32.578 58.67 71.627 76.304 114.194 17.634 42.566 26.797 88.629 26.797 134.702 0 10.517-0.501 21.031-1.449 31.507-4.59-3.431-9.249-6.868-13.981-10.316-67.685-49.167-149.668-99.775-240.087-146.994l0.001 0.003zM414.527 425.053l-49.995-18.414 9.881-26.845 40.114 12.034v33.225zM388.705 340.909l25.922 3.394v28.806l-34.049-10.082 8.127-22.118zM455.883 224.501c-1.156-0.215-2.327-0.339-3.506-0.339-5.113 0-10.201 2.106-13.818 5.721-3.616 3.622-5.725 8.705-5.725 13.822 0 5.114 2.111 10.202 5.725 13.818 3.616 3.622 8.705 5.725 13.818 5.725 5.119 0 10.208-2.103 13.822-5.725 3.616-3.616 5.725-8.703 5.725-13.818 0-5.118-2.109-10.201-5.725-13.822-0.437-0.437-0.895-0.848-1.371-1.239 28.281 13.174 56.918 27.248 85.613 42.103-3.734 0.77-7.244 2.625-9.942 5.324-3.622 3.616-5.728 8.705-5.728 13.818 0 5.119 2.106 10.202 5.728 13.822 0.432 0.432 0.887 0.839 1.36 1.227-31.296-11.086-77.388-27.57-127.644-46.011-4.626-1.747-9.769 0.617-11.418 5.244-1.748 4.631 0.617 9.775 5.244 11.422 77.459 28.489 145.038 52.251 163.969 58.835 0.206 4.113-0.723 6.995-2.677 8.743-6.586 5.762-25.511 3.189-36.825-0.517-0.207 0-0.412-0.1-0.618-0.1-0.411 0-0.717-0.206-1.025-0.206l-105.335-14.3c-0.512-0.1-1.028-0.206-1.648-0.206l-39.804-5.45c-4.118-0.512-8.126 1.854-9.568 5.762l-29.728 80.749c-1.748 4.624 0.617 9.766 5.249 11.415l173.838 63.879 0.206 44.642 0.1 21.915c5.554 2.572 11.010 5.142 16.565 7.61 70.332 31.943 138.25 58.193 199.965 77.427-31.981 31.232-69.943 56.319-111.241 73.422-42.572 17.634-88.629 26.797-134.708 26.797-46.078 0-92.135-9.162-134.701-26.797-42.575-17.63-81.618-43.723-114.201-76.304-32.58-32.58-58.67-71.627-76.304-114.194-17.63-42.572-26.79-88.629-26.79-134.708 0-46.073 9.162-92.135 26.79-134.702 16.636-40.155 40.799-77.174 70.834-108.59 10.9 3.328 22.045 6.898 33.421 10.717 56.394 18.913 118.241 43.674 182.077 73.067l-0.001 0.001zM538.887 362.718c12.345 2.366 30.964 3.702 42.174-6.068 5.244-4.732 11.006-13.787 7.814-30.447-0.617-3.088-2.672-5.66-5.655-6.69 0-0.1 0-0.1-0.106-0.1-0.3-0.076-10.862-3.742-28.58-9.99 5.042-0.061 10.031-2.144 13.603-5.71 3.616-3.621 5.721-8.703 5.721-13.822 0-2.636-0.569-5.26-1.605-7.685 101.011 53.75 191.405 111.655 260.305 165.172 2.467 1.917 4.906 3.827 7.324 5.732-4.494 22.447-11.159 44.459-19.92 65.609-15.043 36.308-36.255 70.044-62.384 99.404-64.622-18.582-139.070-46.527-216.945-81.663l-1.747-173.74 0.001-0.002zM492.804 415.072l29.623 8.851 1.029 41.146-31.273-11.523 0.619-38.473zM474.498 447.068l-42.174-15.635v-34.361l42.787 12.759-0.613 37.237zM493.934 355.21l26.953 3.601 1.13 46.288-28.798-8.538 0.717-41.351zM432.421 378.458v-31.683l43.717 6.068-0.618 38.474-43.099-12.858zM1014.423 644.561c-12.65 19.542-42.174 29.010-87.639 27.98-43.612-0.925-98.956-11.316-161.699-29.418-8.006-2.315-16.143-4.767-24.382-7.334 0.985-0.961 1.982-1.909 2.955-2.882 4.789-4.789 9.419-9.732 13.921-14.791 7.077 2.034 14.044 3.963 20.877 5.771 46.494 12.339 89.901 18.926 121.995 19.643 34.666 0.724 57.81-6.167 66.762-19.954 4.731-7.303 5.654-16.765 2.672-28.081-9.45-35.714-58.745-86.25-130-142.39 2.487-12.42 4.288-24.976 5.428-37.591 96.354 72.016 160.669 140.016 173.434 188.518 4.218 15.946 2.777 29.622-4.321 40.528l-0.002 0.002zM240.385 140.718c-62.519-19.090-116.718-29.979-157.182-30.941-34.666-0.724-57.81 6.174-66.762 19.954-4.73 7.303-5.655 16.767-2.672 28.082 9.769 36.927 59.557 102.864 134.953 161.805l-0.819 3.702c-79.002-62.954-132.080-120.864-143.395-163.858-4.213-15.947-2.778-29.629 4.323-40.533 12.651-19.542 42.171-29.004 87.639-27.977 44.258 0.939 100.524 11.54 164.291 30.135-5.099 4.534-10.083 9.198-14.907 14.025-1.846 1.846-3.667 3.721-5.471 5.607h-0.001z"  horiz-adv-x="1024" />

    
    <glyph glyph-name="wallet" unicode="&#58944;" d="M931.345 63.787000000000035c0-11.715-2.002-22.65-6.008-32.821-4.008-10.17-9.707-19.105-17.102-26.812-7.397-7.708-16.028-13.716-25.891-18.026-9.857-4.316-20.646-6.472-32.359-6.472h-671.209c-11.708 0-22.806 2.155-33.284 6.472-10.476 4.312-19.72 10.32-27.734 18.026-8.015 7.707-14.332 16.643-18.952 26.812-4.626 10.17-6.935 21.108-6.935 32.821v461.343c0 23.418 8.164 43.296 24.498 59.63 16.334 16.333 36.212 24.502 59.634 24.502h671.209c23.423 0 43.3-8.169 59.634-24.502 16.334-16.334 24.498-36.212 24.498-59.63v-125.739h-209.867c-23.423 0-43.3-8.01-59.634-24.036-16.334-16.025-24.498-35.749-24.498-59.17 0.618-16.025 4.007-30.203 10.171-42.529 4.929-10.479 13.098-20.032 24.498-28.659 11.405-8.628 27.893-12.943 49.463-12.943h209.867v-168.264l-0.001-0.002zM805.609 651.788h-419.738c33.284 17.255 64.718 33.897 94.302 49.922 25.888 13.562 51.47 27.121 76.74 40.682 25.269 13.557 44.993 24.036 59.17 31.433 21.571 11.708 40.832 17.105 57.784 16.178 16.945-0.924 31.278-3.852 42.987-8.781 13.562-6.779 25.273-15.716 35.137-26.813l53.619-102.622zM679.874 316.183c0 11.708 4.006 21.57 12.017 29.586 8.016 8.01 17.877 12.017 29.586 12.017 11.708 0 21.57-4.006 29.586-12.017 8.01-8.015 12.017-17.877 12.017-29.586s-4.006-21.726-12.017-30.048c-8.016-8.318-17.877-12.482-29.586-12.482-11.708 0-21.57 4.162-29.586 12.482-8.01 8.324-12.017 18.338-12.017 30.048z"  horiz-adv-x="1024" />

    
    <glyph glyph-name="zhifubao" unicode="&#58975;" d="M230.404452 319.463513C218.3168 309.735513 205.360974 295.533078 201.598887 277.479513 196.478887 252.81447 200.530365 221.938643 224.327235 197.718817 253.155061 168.35673 296.964452 160.320557 315.886191 158.940383 367.286539 155.222817 422.070539 180.711513 463.364452 209.784209 479.548104 221.204035 507.262887 244.13273 533.753322 279.505252 474.383583 310.15847 400.277148 344.061774 321.050713 340.744904 280.580452 339.053078 251.5968 330.66073 230.404452 319.463513ZM983.262609 183.919304C1009.463652 245.426087 1024 313.032348 1024 384 1024 666.312348 794.334609 896 512 896 229.665391 896 0 666.312348 0 384 0 101.665391 229.665391-128 512-128 682.384696-128 833.491478-44.27687 926.630957 84.123826 838.633739 127.866435 693.604174 199.858087 604.271304 243.422609 561.641739 194.82713 498.621217 146.120348 427.430957 124.928 382.70887 111.638261 342.394435 106.562783 300.232348 115.177739 258.493217 123.725913 227.750957 143.270957 209.830957 162.860522 200.704 172.855652 190.21913 185.566609 182.628174 200.681739 183.340522 198.767304 183.830261 197.632 183.830261 197.632 183.830261 197.632 179.46713 205.156174 176.128 217.132522 174.413913 222.920348 173.256348 228.953043 172.78887 235.27513 172.432696 239.415652 172.343652 243.778783 172.588522 248.32 172.210087 256.022261 172.521739 264.102957 174.258087 272.384 178.44313 292.61913 187.080348 316.193391 209.430261 338.075826 258.493217 386.114783 324.207304 388.697043 358.244174 388.496696 408.665043 388.207304 496.283826 366.146783 570.056348 340.057043 590.491826 383.577043 603.603478 430.124522 612.062609 461.156174L305.307826 461.156174 305.307826 494.32487 462.825739 494.32487 462.825739 560.662261 272.13913 560.662261 272.13913 593.830957 462.825739 593.830957 462.825739 660.146087C462.825739 669.250783 464.62887 676.730435 479.410087 676.730435L554.028522 676.730435 554.028522 593.830957 761.321739 593.830957 761.321739 560.662261 554.028522 560.662261 554.028522 494.32487 719.849739 494.32487C719.849739 494.32487 703.198609 401.497043 651.130435 310.00487 766.686609 268.733217 929.257739 205.156174 983.262609 183.919304Z"  horiz-adv-x="1024" />

    
    <glyph glyph-name="kefu02" unicode="&#58890;" d="M877.757776 506.949216c-0.497327 1.929955-1.013073 3.342118-1.490957 5.091972C863.219665 719.118454 758.725776 832.800609 511.175727 832.800609c-247.551072 0-352.054171-113.681132-365.080859-320.759421-0.496304-1.749854-0.994654-3.162016-1.502213-5.091972-0.775666-2.962471 0.407276-14.616906 0-20.364817 0-0.895393 0.399089-1.671059 0.517793-2.545986-0.208754-6.125511-0.517793-12.131295-0.517793-18.455327 0-73.627904 0-182.65504 0-182.65504 0.557702-7.597025-0.257873-13.543458 0.488117-17.222243 5.519714-27.207665 20.753673-43.874253 58.849316-43.874253 79.703273 0 123.955126 72.949452 123.955126 162.925696 0 89.974197-44.251853 162.924673-123.955126 162.924673-4.833075 0-9.178033 0-13.154601-0.079818 22.25384 160.499437 116.892267 244.467851 320.400241 244.467851 203.518207 0 298.145377-83.968413 320.400241-244.467851-3.976568 0.079818-8.331759 0.079818-13.146415 0.079818-79.71146 0-123.963313-72.950476-123.963313-162.924673 0-89.976244 44.251853-162.925696 123.963313-162.925696 3.461845 0 6.523577 0.297782 9.627265 0.556679C797.786397 116.421802 692.259992 36.630525 571.059606 19.925051c-5.688559 33.651424-34.783201 59.346643-70.065775 59.346643-39.370683 0-71.281463-31.921014-71.281463-71.279417 0-39.359426 31.911804-71.28044 71.281463-71.28044 29.015847 0 53.876048 17.403369 64.995293 42.283012C732.750171-3.901611 866.918917 113.995543 876.823498 263.953903c0.11768 0.596588 0.318248 1.133823 0.435928 1.750877 0.757247 3.678786-0.058328 9.625218 0.497327 17.222243-0.437975 89.35919 0 122.194016 0 182.65504 0 6.324032-0.297782 12.329816-0.517793 18.455327 0.119727 0.874927 0.517793 1.650593 0.517793 2.545986C877.339244 492.332311 878.532419 503.986745 877.757776 506.949216z"  horiz-adv-x="1024" />

    
    <glyph glyph-name="kefu01" unicode="&#58895;" d="M877.695355 487.818507c-0.203638 6.040576 0.785899 16.366759 0.062422 19.130709-0.473791 1.816369-0.943488 3.547803-1.414209 5.205559C863.314833 719.221808 758.712473 832.800609 511.175727 832.800609c-247.535723 0-352.140129-113.578802-365.168864-320.643788-0.469698-1.658779-0.939395-3.390213-1.413186-5.206582-0.725524-2.772136 0.264013-13.157671 0.059352-19.190061-0.022513-0.390903-0.059352-0.778736-0.059352-1.174756 0-0.967024 0.090051-1.910513 0.221034-2.840698-0.138146-5.987365-0.221034-12.029988-0.221034-18.160615 0-73.627904 0-182.65504 0-182.65504 0-0.731664 0.042979-1.453095 0.11768-2.165316 0.286526-6.558369-0.301875-11.738345 0.370437-15.056927 5.519714-27.207665 20.753673-43.874253 58.849316-43.874253 79.703273 0 123.955126 72.949452 123.955126 162.925696 0 89.974197-44.251853 162.924673-123.955126 162.924673-4.90266 0-9.334599 0.001023-13.360286-0.073678C212.780663 708.220243 307.586912 792.068929 511.175727 792.068929c203.589838 0 298.395064-83.848687 320.605925-244.461711-4.024663 0.074701-8.453533 0.073678-13.352099 0.073678-79.71146 0-123.963313-72.950476-123.963313-162.924673 0-89.976244 44.251853-162.925696 123.963313-162.925696 3.489474 0 6.78452 0.143263 9.900487 0.418532-30.269397-105.893772-135.918599-185.735192-257.043261-202.482621-5.614881 33.754778-34.938744 59.504232-70.291926 59.504232-39.370683 0-71.281463-31.921014-71.281463-71.279417 0-39.359426 31.911804-71.28044 71.281463-71.28044 29.014824 0 53.963029 17.35118 65.086367 42.230824 167.463036 17.194614 302.359352 136.035256 311.198671 286.892079 0.342808 1.768273 0.343831 4.047176 0.308015 6.767124 0.113587 3.429099 0.188288 6.866385 0.170892 10.326183-0.437975 89.35919 0 122.194016 0 182.65504 0 6.131651-0.082888 12.175297-0.221034 18.163685 0.12996 0.930185 0.221034 1.87265 0.221034 2.838651C877.757776 487.000885 877.718891 487.408161 877.695355 487.818507zM220.318336 506.949216c42.97886 0 66.836221-54.712089 66.836221-122.192993 0-67.480904-23.856337-122.194016-66.836221-122.194016-22.534226 0-32.18912 8.69094-34.992979 20.364817 0 3.715625-1.00898 7.185656-2.744507 10.18292l2.744507 0.735757c0 0 0 104.513332 0 171.21857 0 7.749498 0.132006 15.350616 0.369414 22.834055C189.403233 500.120694 199.966822 506.949216 220.318336 506.949216zM500.99383-24.286893c-17.830087 0-32.279171 14.458293-32.279171 32.279171 0 17.819854 14.450107 32.278147 32.279171 32.278147 17.828041 0 32.278147-14.458293 32.278147-32.278147C533.271978-9.8286 518.821871-24.286893 500.99383-24.286893zM837.026096 282.927023c-2.803859-11.673877-12.468986-20.364817-34.982746-20.364817-43.00035 0-66.846454 54.713113-66.846454 122.194016 0 67.480904 23.847128 122.192993 66.846454 122.192993 20.342304 0 30.903847-6.828522 34.612309-19.050891 0.237407-7.483438 0.369414-15.084557 0.369414-22.834055C837.026096 404.36584 837.363787 348.299917 837.026096 282.927023z"  horiz-adv-x="1024" />

    
    <glyph glyph-name="guanbi11" unicode="&#59437;" d="M659.368 203.384c-5.24 0-10.477 1.95-14.472 5.947l-267.92 267.876c-7.991 7.991-7.991 20.955 0 28.947 7.991 7.988 20.955 7.988 28.947 0l267.921-267.877c7.988-7.991 7.988-20.954 0-28.945-3.998-3.992-9.237-5.947-14.477-5.947v0zM659.368 203.384zM391.447 203.384c-5.24 0-10.475 1.95-14.471 5.947-7.991 7.991-7.991 20.954 0 28.945l267.921 267.877c7.991 7.988 20.954 7.988 28.947 0 7.988-7.991 7.988-20.955 0-28.947l-267.922-267.876c-3.999-3.992-9.235-5.947-14.476-5.947v0zM391.447 203.384zM525.429-39.187c-218.863 0-396.973 178.064-396.973 396.974 0 218.863 178.11 396.952 396.973 396.952 218.868 0 396.978-178.088 396.978-396.952 0-218.91-178.11-396.974-396.978-396.974v0zM525.429 713.809c-196.31 0-356.043-159.708-356.043-356.021s159.734-356.043 356.043-356.043c196.313 0 356.043 159.729 356.043 356.043 0 196.313-159.729 356.021-356.043 356.021v0zM525.429 713.809z"  horiz-adv-x="1024" />

    
    <glyph glyph-name="download-solid" unicode="&#59053;" d="M383.3404314453125 748.7288135742187l257.0232383789063 0 0-68.4633814453125-257.0232383789063 0 0 68.4633814453125ZM383.3404314453125 815.7082022460938l257.0232383789063 0 0-35.71298701171875-257.0232383789063 0 0 35.71298701171875ZM885.0077008789062 244.12323662109372L854.4805982421875 73.65281542968751 169.16594169921876 73.65281542968751 138.66851884765623 244.12323662109372 62.43620468749998 244.12323662109372 62.43620468749998-27.58704375000002 961.9802131835937-27.58704375000002 961.9802131835937 244.12323662109372ZM866.1232047851563 547.787951953125L640.3636698242187 547.787951953125 640.3636698242187 646.006758984375 383.3404314453125 646.006758984375 383.3404314453125 547.0180740234375 160.43646025390632 547.0180740234375 511.09611259765626 162.97575439453112Z"  horiz-adv-x="1024" />

    
    <glyph glyph-name="liwu" unicode="&#59194;" d="M843.913 594.862h-158.423c16.002 19.019 25.657 43.544 25.657 70.287 0 60.288-49.048 109.336-109.336 109.336-37.161 0-70.046-18.64-89.811-47.057-19.765 28.417-52.65 47.057-89.811 47.057-60.288 0-109.336-49.048-109.336-109.336 0-26.742 9.655-51.268 25.657-70.287h-158.422c-32.297 0-58.573-26.276-58.573-58.573v-134.718c0-28.628 20.651-52.509 47.834-57.569v-291.915c0-32.297 26.275-58.573 58.573-58.573h568.157c32.297 0 58.573 26.276 58.573 58.573v291.915c27.184 5.060 47.834 28.941 47.834 57.569v134.718c0.001 32.297-26.275 58.573-58.572 58.573zM601.811 735.437c38.756 0 70.288-31.531 70.288-70.287s-31.531-70.287-70.288-70.287h-70.287v70.287c0 38.757 31.531 70.287 70.287 70.287zM351.9 665.15c0 38.756 31.531 70.287 70.287 70.287s70.287-31.531 70.287-70.287v-70.287h-70.287c-38.756 0-70.287 31.531-70.287 70.287zM160.563 401.572v134.717c0 10.765 8.758 19.524 19.524 19.524h312.388v-173.766h-312.388c-10.765 0-19.524 8.758-19.524 19.525zM208.397 52.087v289.935h284.078v-309.459h-264.553c-10.765 0-19.524 8.758-19.524 19.524zM815.603 52.087c0-10.765-8.758-19.524-19.524-19.524h-264.554v309.459h284.078v-289.935zM863.437 401.572c0-10.765-8.758-19.524-19.524-19.524h-312.389v173.766h312.389c10.765 0 19.524-8.758 19.524-19.524v-134.718z"  horiz-adv-x="1024" />

    
    <glyph glyph-name="lianxikefu" unicode="&#58981;" d="M623.877 450.319c-20.309 0-36.771 16.44-36.771 36.758v36.742c0 20.3 16.463 36.758 36.771 36.758 20.3 0 36.747-16.458 36.747-36.758v-36.742c0-20.318-16.447-36.758-36.747-36.758zM658.039 371.148h44.354c-35.023-67.936-106.080-114.529-188.236-114.529s-153.209 46.593-188.231 114.529h44.358c31.043-46.032 83.88-76.363 143.873-76.363 60.002-0.001 112.837 30.33 143.881 76.363zM403.332 450.319c-20.307 0-36.771 16.44-36.771 36.758v36.742c0 20.3 16.464 36.758 36.771 36.758 20.292 0 36.747-16.458 36.747-36.758v-36.742c0-20.318-16.455-36.758-36.747-36.758zM437.238-9.158c-7.036 0-13.371 2.962-17.823 8.329-9.944 11.999-7.036 30.665-1.022 62.622 1.705 9.009 4.254 22.588 4.9 31.077-177.301 32.648-295.661 167.762-295.661 339.068 0 192.549 173.138 349.192 385.958 349.192 212.813 0 385.958-156.643 385.958-349.192 0-151.358-108.623-280.971-276.708-330.185-10.877-3.186-42.017-25.838-67.037-44.036-57.185-41.614-93.691-66.876-118.567-66.876zM513.59 744.371c-192.549 0-349.201-140.157-349.201-312.434 0-158.205 107.852-277.731 274.751-304.502 6.282-1.006 11.774-4.461 15.489-9.737 8.795-12.501 5.852-31.032-0.108-62.702-1.221-6.524-2.926-15.517-3.967-23.063 21.772 10.499 59.229 37.745 83.621 55.505 38.032 27.668 62.155 44.862 78.344 49.591 154.372 45.203 250.27 158.205 250.27 294.907 0 172.275-156.652 312.434-349.201 312.434z"  horiz-adv-x="1024" />

    
    <glyph glyph-name="authenticated-user" unicode="&#58989;" d="M611.435687 452.512397c-2.653433-10.609639-5.310959-20.228717-7.963369-28.852118-2.651386-7.297197-5.970992-14.759145-9.949606-22.385846-3.980661-7.626701-8.289804-13.433964-12.932544-17.411555-5.969968-4.644787-10.116405-9.620102-12.438287-14.925944-2.320858-5.303796-4.315282-10.773368-5.970992-16.413831-1.655709-5.63944-3.482311-11.440563-5.469572-17.411555-1.9934-5.970992-5.309936-11.94096-9.948583-17.908882-15.260565-19.897166-26.703175-39.137369-34.3309-57.710376-7.626701-18.571984-12.933567-36.480866-15.919575-53.729715-2.983961-17.244756-3.814886-34.328853-2.489704-51.238988 1.328251-16.916275 3.980661-33.334199 7.963369-49.252751 2.65241-11.936867 6.632047-24.37413 11.936867-37.310767 5.308913-12.932544 13.103436-26.200732 23.3805-39.799448 10.282181-13.597693 23.382547-26.860764 39.305191-39.798425 15.916505-12.933567 35.814694-25.368784 59.697637-37.311791-15.921621-3.314489-34.494629-6.30152-55.719023-8.953929-17.911952-1.9934-39.965224-3.812839-66.163909-5.469572-26.201755-1.663896-56.219419-2.489704-90.046852-2.489704-17.247826 0-37.310767 0.661056-60.194964 1.988284-22.886243 1.327228-46.430472 2.986007-70.643943 4.974291-24.208355 1.991354-48.092321 4.313236-71.638597 6.966669-23.543206 2.65241-45.105291 5.471618-64.672952 8.457626-19.565615 2.982938-36.151361 6.135744-49.749054 9.452279-13.5936 3.315512-22.053272 6.30152-25.370831 8.952906-5.969968 5.310959-10.609639 20.070104-13.928221 44.279483-3.317559 24.205285-2.321882 55.883775 2.983961 95.019097 3.316535 21.889543 12.105712 38.635949 26.366508 50.248428 14.261818 11.605316 31.010271 20.72502 50.249451 27.361161 19.23304 6.633071 39.300075 12.768815 60.194964 18.408255 20.893866 5.635347 39.303144 13.427824 55.223742 23.37743 12.603039 7.960299 22.220071 15.425318 28.853142 22.388916 6.631024 6.965645 11.274788 14.093996 13.927197 21.393239 2.653433 7.29208 3.980661 14.924921 3.980661 22.883173 0 7.958252-0.331551 16.58063-0.995677 25.870204-1.328251 13.928221-6.131651 24.87555-14.425547 32.832779-8.29185 7.961322-17.080004 15.921621-26.365484 23.87885-5.309936 3.983731-9.950629 9.948583-13.933337 17.910928-3.979638 7.957229-7.29208 15.585977-9.949606 22.88215-3.313465 8.624425-5.967922 18.24248-7.959276 28.852118-4.64274 1.327228-8.952906 3.317559-12.93152 5.970992-3.317559 2.65241-6.967692 6.636141-10.946306 11.941983-3.979638 5.303796-7.626701 13.263072-10.946306 23.87885-3.317559 9.949606-4.477988 19.23304-3.482311 27.856441 0.994654 8.624425 2.822278 15.920598 5.474688 21.89159 2.653433 7.297197 6.300496 13.598716 10.942213 18.903535 0 22.552645 1.330298 45.105291 3.983731 67.663052 2.653433 19.232017 6.7968 39.799448 12.438287 61.683874 5.635347 21.892613 14.758122 41.460274 27.361161 58.70196 11.93789 16.58677 24.708751 30.185486 38.303374 40.794102 13.597693 10.615779 27.695782 18.904559 42.286082 24.87555 14.592346 5.970992 29.185716 10.115382 43.780109 12.437264 14.591323 2.320858 28.522614 3.483334 41.789779 3.483334 17.244756 0 33.825386-1.9934 49.747008-5.972015 15.920598-3.977591 30.677697-9.283434 44.276413-15.920598 13.601786-6.631024 25.705452-14.093996 36.316114-22.385846 10.615779-8.28878 19.23918-16.744359 25.871227-25.368784 15.254425-19.234063 26.365484-40.464597 33.334199-63.676252 6.961552-23.217794 12.100596-45.104267 15.418154-65.668629 3.318582-23.87885 4.646833-47.756677 3.981684-71.640644 3.979638-3.314489 7.297197-7.29208 9.949606-11.936867 2.650363-3.979638 4.644787-9.289574 5.969968-15.920598 1.328251-6.632047 1.328251-14.923898 0-24.87555-1.327228-12.603039-3.980661-22.551622-7.956206-29.848819-3.983731-7.29822-8.29185-12.933567-12.93766-16.916275C623.042026 457.822332 617.401562 454.505797 611.435687 452.512397L611.435687 452.512397 611.435687 452.512397zM943.754375 251.03261599999996c-10.615779 24.871457-25.040303 46.434565-43.282782 64.671928-18.241456 18.243503-39.798425 32.67212-64.672952 43.283806-24.87555 10.616802-51.240011 15.922644-79.099523 15.922644-27.860535 0-54.224995-5.306866-79.098499-15.922644-24.876574-10.610662-46.601364-25.040303-65.172325-43.283806-18.569938-18.23634-33.164331-39.797401-43.778062-64.671928-10.611685-24.87555-15.920598-51.238988-15.920598-79.097476 0-27.862581 5.307889-54.226019 15.920598-79.100546 10.615779-24.874527 25.208125-46.595224 43.778062-65.169255 18.571984-18.574031 40.296775-33.166377 65.172325-43.779086 24.87555-10.616802 51.238988-15.920598 79.098499-15.920598 27.860535 0 54.226019 5.303796 79.099523 15.920598 24.874527 10.611685 46.429449 25.204032 64.672952 43.779086 18.24248 18.574031 32.66905 40.292682 43.282782 65.169255 10.610662 24.87555 15.922644 51.238988 15.922644 79.100546C959.677019 199.793628 954.36606 226.157066 943.754375 251.03261599999996zM871.292016 247.88390300000003l-31.116695-66.729797-26.070772-55.908334L786.773064 66.63181599999996c-2.044566-4.384867-4.76042-8.05649-8.134261-11.028171-2.181689-2.068102-4.864798-3.845585-8.051373-5.332449-4.725628-2.204202-9.516748-3.282766-14.369266-3.236718-0.005117 0-0.010233 0-0.01535 0-0.005117 0-0.010233 0-0.01535 0-4.852518-0.046049-9.643638 1.032516-14.369266 3.236718-3.186576 1.485841-5.869684 3.264347-8.051373 5.332449-3.373841 2.971681-6.089695 6.643304-8.134261 11.029194l-27.332509 58.613956-26.070772 55.908334-31.116695 66.729797c-3.925403 8.41874-4.285606 17.031908-1.071402 25.847691 3.204995 8.816806 9.021467 15.184841 17.436114 19.108197 8.413624 3.923356 16.427134 4.00522 24.044626 0.234337 7.611352-3.76986 13.376659-9.860579 17.302061-18.279319l29.311583-67.571978 26.070772-55.908334 1.99647-4.28049 1.99647 4.28049 26.070772 55.908334 29.311583 67.571978c3.925403 8.41874 9.691733 14.509459 17.302061 18.279319 7.617491 3.770883 15.632025 3.689019 24.044626-0.234337 8.414647-3.923356 14.231119-10.29139 17.436114-19.108197C875.577622 264.91581099999996 875.217419 256.30161999999996 871.292016 247.88390300000003z"  horiz-adv-x="1024" />

    
    <glyph glyph-name="editor-bold" unicode="&#59164;" d="M116.492 680.924c0 54.446 44.224 98.585 98.585 98.585h593.849c54.446 0 98.585-44.224 98.585-98.585v-593.849c0-54.446-44.224-98.585-98.585-98.585h-593.849c-54.446 0-98.585 44.224-98.585 98.585v593.849zM315.492 620.114v-472.229h228.839c21.165 0 41.777 2.646 61.84 7.937 20.062 5.292 37.92 13.449 53.572 24.473 15.653 11.023 28.109 25.243 37.37 42.659 9.26 17.415 13.888 38.03 13.888 61.839 0 29.542-7.164 54.784-21.495 75.728-14.331 20.944-36.046 35.603-65.146 43.981 21.165 10.142 37.147 23.148 47.95 39.022 10.803 15.874 16.205 35.714 16.205 59.525 0 22.046-3.637 40.565-10.912 55.556-7.275 14.992-17.527 27.007-30.755 36.046-13.228 9.038-29.101 15.543-47.619 19.511-18.518 3.968-39.022 5.952-61.508 5.952h-222.225zM419.33 428.975v110.452h97.223c9.261 0 18.188-0.772 26.786-2.315s16.205-4.298 22.817-8.267c6.614-3.968 11.904-9.481 15.873-16.535 3.968-7.055 5.953-16.094 5.953-27.117 0-19.842-5.953-34.171-17.858-42.99-11.904-8.818-27.117-13.228-45.636-13.228h-105.159zM419.33 228.57500000000005v129.632h113.097c22.487 0 40.565-5.182 54.233-15.543 13.669-10.362 20.503-27.668 20.503-51.919 0-12.346-2.094-22.487-6.283-30.425-4.189-7.937-9.81-14.22-16.866-18.849-7.055-4.629-15.211-7.937-24.473-9.921-9.261-1.984-18.96-2.976-29.101-2.976h-111.113z"  horiz-adv-x="1024" />

    
    </font>
</defs>
</svg>
